<?xml version="1.0" encoding="UTF-8" standalone="no"?><svg xmlns="http://www.w3.org/2000/svg" xmlns:xlink="http://www.w3.org/1999/xlink" contentScriptType="application/ecmascript" contentStyleType="text/css" height="655px" preserveAspectRatio="none" style="width:109px;height:655px;" version="1.1" viewBox="0 0 109 655" width="109px" zoomAndPan="magnify"><defs><filter height="300%" id="f13pkup8md1fjq" width="300%" x="-1" y="-1"><feGaussianBlur result="blurOut" stdDeviation="2.0"/><feColorMatrix in="blurOut" result="blurOut2" type="matrix" values="0 0 0 0 0 0 0 0 0 0 0 0 0 0 0 0 0 0 .4 0"/><feOffset dx="4.0" dy="4.0" in="blurOut2" result="blurOut3"/><feBlend in="SourceGraphic" in2="blurOut3" mode="normal"/></filter></defs><g><ellipse cx="60" cy="18" fill="#000000" filter="url(#f13pkup8md1fjq)" rx="10" ry="10" style="stroke: none; stroke-width: 1.0;"/><rect fill="#FEFECE" filter="url(#f13pkup8md1fjq)" height="34.1328" rx="12.5" ry="12.5" style="stroke: #A80036; stroke-width: 1.5;" width="40" x="40" y="82"/><text fill="#000000" font-family="sans-serif" font-size="12" lengthAdjust="spacingAndGlyphs" textLength="20" x="50" y="103.6016">null</text><rect fill="#FF0000" filter="url(#f13pkup8md1fjq)" height="34.1328" rx="12.5" ry="12.5" style="stroke: #A80036; stroke-width: 1.5;" width="28" x="46" y="170"/><text fill="#000000" font-family="sans-serif" font-size="12" lengthAdjust="spacingAndGlyphs" textLength="8" x="56" y="191.6016">5</text><rect fill="#FEFECE" filter="url(#f13pkup8md1fjq)" height="34.1328" rx="12.5" ry="12.5" style="stroke: #A80036; stroke-width: 1.5;" width="28" x="6" y="258"/><text fill="#000000" font-family="sans-serif" font-size="12" lengthAdjust="spacingAndGlyphs" textLength="8" x="16" y="279.6016">4</text><rect fill="#FEFECE" filter="url(#f13pkup8md1fjq)" height="34.1328" rx="12.5" ry="12.5" style="stroke: #A80036; stroke-width: 1.5;" width="28" x="51" y="346"/><text fill="#000000" font-family="sans-serif" font-size="12" lengthAdjust="spacingAndGlyphs" textLength="8" x="61" y="367.6016">3</text><rect fill="#FEFECE" filter="url(#f13pkup8md1fjq)" height="34.1328" rx="12.5" ry="12.5" style="stroke: #A80036; stroke-width: 1.5;" width="28" x="9" y="434"/><text fill="#000000" font-family="sans-serif" font-size="12" lengthAdjust="spacingAndGlyphs" textLength="8" x="19" y="455.6016">2</text><rect fill="#FEFECE" filter="url(#f13pkup8md1fjq)" height="34.1328" rx="12.5" ry="12.5" style="stroke: #A80036; stroke-width: 1.5;" width="28" x="56" y="522"/><text fill="#000000" font-family="sans-serif" font-size="12" lengthAdjust="spacingAndGlyphs" textLength="8" x="66" y="543.6016">1</text><rect fill="#FEFECE" filter="url(#f13pkup8md1fjq)" height="34.1328" rx="12.5" ry="12.5" style="stroke: #A80036; stroke-width: 1.5;" width="28" x="17" y="610"/><text fill="#000000" font-family="sans-serif" font-size="12" lengthAdjust="spacingAndGlyphs" textLength="8" x="27" y="631.6016">0</text><!--link start to null--><path d="M60,28.2587 C60,40.3447 60,60.7784 60,76.586 " fill="none" id="start-null" style="stroke: #A80036; stroke-width: 1.0;"/><polygon fill="#A80036" points="60,81.7507,64,72.7507,60,76.7507,56,72.7507,60,81.7507" style="stroke: #A80036; stroke-width: 1.0;"/><text fill="#000000" font-family="sans-serif" font-size="11" lengthAdjust="spacingAndGlyphs" textLength="7" x="61" y="59.6348">1</text><!--link null to 5--><path d="M60,116.386 C60,130.2154 60,149.6635 60,164.6491 " fill="none" id="null-5" style="stroke: #A80036; stroke-width: 1.0;"/><polygon fill="#A80036" points="60,169.9496,64,160.9496,60,164.9496,56,160.9496,60,169.9496" style="stroke: #A80036; stroke-width: 1.0;"/><text fill="#000000" font-family="sans-serif" font-size="11" lengthAdjust="spacingAndGlyphs" textLength="7" x="61" y="147.6348">1</text><!--link 5 to 4--><path d="M52.0973,204.386 C45.756,218.3367 36.8159,238.0051 29.9807,253.0424 " fill="none" id="5-4" style="stroke: #A80036; stroke-width: 1.0;"/><polygon fill="#A80036" points="27.7502,257.9496,35.1159,251.4115,29.8192,253.3978,27.8329,248.1011,27.7502,257.9496" style="stroke: #A80036; stroke-width: 1.0;"/><text fill="#000000" font-family="sans-serif" font-size="11" lengthAdjust="spacingAndGlyphs" textLength="7" x="44" y="235.6348">1</text><!--link 4 to 3--><path d="M28.8906,292.386 C36.0865,306.458 46.2573,326.3476 53.9718,341.4337 " fill="none" id="4-3" style="stroke: #A80036; stroke-width: 1.0;"/><polygon fill="#A80036" points="56.281,345.9496,55.7448,336.1153,54.0046,341.4979,48.622,339.7576,56.281,345.9496" style="stroke: #A80036; stroke-width: 1.0;"/><text fill="#000000" font-family="sans-serif" font-size="11" lengthAdjust="spacingAndGlyphs" textLength="7" x="47" y="323.6348">2</text><!--link 3 to 2--><path d="M56.7022,380.386 C49.9859,394.458 40.4932,414.3476 33.293,429.4337 " fill="none" id="3-2" style="stroke: #A80036; stroke-width: 1.0;"/><polygon fill="#A80036" points="31.1377,433.9496,38.6243,427.5504,33.2914,429.4372,31.4046,424.1044,31.1377,433.9496" style="stroke: #A80036; stroke-width: 1.0;"/><text fill="#000000" font-family="sans-serif" font-size="11" lengthAdjust="spacingAndGlyphs" textLength="21" x="48" y="411.6348">107</text><!--link 2 to 1--><path d="M31.4775,468.0991 C36.47,478.0488 42.97,490.7988 49,502 C51.6806,506.9793 54.6361,512.2897 57.4623,517.2878 " fill="none" id="2-1" style="stroke: #A80036; stroke-width: 1.0;"/><polygon fill="#A80036" points="60.01,521.7716,59.0416,511.9705,57.5399,517.4244,52.086,515.9227,60.01,521.7716" style="stroke: #A80036; stroke-width: 1.0;"/><text fill="#000000" font-family="sans-serif" font-size="11" lengthAdjust="spacingAndGlyphs" textLength="21" x="50" y="499.6348">248</text><!--link 1 to 0--><path d="M62.2949,556.386 C56.1121,570.3367 47.3955,590.0051 40.7312,605.0424 " fill="none" id="1-0" style="stroke: #A80036; stroke-width: 1.0;"/><polygon fill="#A80036" points="38.5564,609.9496,45.86,603.3423,40.5823,605.3784,38.5462,600.1007,38.5564,609.9496" style="stroke: #A80036; stroke-width: 1.0;"/><text fill="#000000" font-family="sans-serif" font-size="11" lengthAdjust="spacingAndGlyphs" textLength="21" x="53" y="587.6348">142</text><!--link 0 to 2--><path d="M28.5187,609.8293 C26.5764,595.4779 24.0364,574.4535 23,556 C21.3981,527.4764 21.7575,494.5255 22.2772,473.2577 " fill="none" id="0-2" style="stroke: #A80036; stroke-width: 1.0;"/><polygon fill="#A80036" points="22.4117,468.1121,18.1778,477.0045,22.281,473.1104,26.175,477.2136,22.4117,468.1121" style="stroke: #A80036; stroke-width: 1.0;"/><text fill="#000000" font-family="sans-serif" font-size="11" lengthAdjust="spacingAndGlyphs" textLength="21" x="24" y="543.6348">142</text><!--link 1 to 3--><path d="M71.7773,521.821 C74.1826,495.5085 77.6684,443.6816 73,400 C72.4871,395.201 71.6102,390.1105 70.6202,385.2907 " fill="none" id="1-3" style="stroke: #A80036; stroke-width: 1.0;"/><polygon fill="#A80036" points="69.5135,380.1936,67.5144,389.8374,70.5745,385.0797,75.3322,388.1398,69.5135,380.1936" style="stroke: #A80036; stroke-width: 1.0;"/><text fill="#000000" font-family="sans-serif" font-size="11" lengthAdjust="spacingAndGlyphs" textLength="21" x="76" y="455.6348">106</text><!--link 2 to 4--><path d="M22.7101,433.9932 C22.1645,401.9868 20.9856,332.8226 20.3784,297.2001 " fill="none" id="2-4" style="stroke: #A80036; stroke-width: 1.0;"/><polygon fill="#A80036" points="20.2931,292.1961,16.4472,301.263,20.3784,297.1954,24.446,301.1266,20.2931,292.1961" style="stroke: #A80036; stroke-width: 1.0;"/><text fill="#000000" font-family="sans-serif" font-size="11" lengthAdjust="spacingAndGlyphs" textLength="7" x="23" y="367.6348">1</text><!--link 3 to 5--><path d="M64.5169,345.9932 C63.6076,313.9868 61.6427,244.8226 60.6307,209.2001 " fill="none" id="3-5" style="stroke: #A80036; stroke-width: 1.0;"/><polygon fill="#A80036" points="60.4885,204.1961,56.746,213.3062,60.6306,209.1941,64.7427,213.0787,60.4885,204.1961" style="stroke: #A80036; stroke-width: 1.0;"/><text fill="#000000" font-family="sans-serif" font-size="11" lengthAdjust="spacingAndGlyphs" textLength="7" x="63" y="279.6348">1</text><!--
@startuml
(*) - -> [1] "null"
"null" - -> [1] "5"
"5" - -> [1] "4"
"4" - -> [2] "3"
"3" - -> [107] "2"
"2" - -> [248] "1"
"1" - -> [142] "0"
"0" - -> [142] "2"
"1" - -> [106] "3"
"2" - -> [1] "4"
"3" - -> [1] "5" #red
@enduml

PlantUML version 1.2019.00(Sun Jan 13 10:46:42 EST 2019)
(EPL source distribution)
Java Runtime: Java(TM) SE Runtime Environment
JVM: Java HotSpot(TM) 64-Bit Server VM
Java Version: 1.8.0_201-b09
Operating System: Mac OS X
OS Version: 10.14.4
Default Encoding: UTF-8
Language: zh
Country: CN
--></g></svg>