<?xml version="1.0" encoding="UTF-8" standalone="no"?><svg xmlns="http://www.w3.org/2000/svg" xmlns:xlink="http://www.w3.org/1999/xlink" contentScriptType="application/ecmascript" contentStyleType="text/css" height="1291px" preserveAspectRatio="none" style="width:757px;height:1291px;" version="1.1" viewBox="0 0 757 1291" width="757px" zoomAndPan="magnify"><defs><filter height="300%" id="f105k2uk21et9v" width="300%" x="-1" y="-1"><feGaussianBlur result="blurOut" stdDeviation="2.0"/><feColorMatrix in="blurOut" result="blurOut2" type="matrix" values="0 0 0 0 0 0 0 0 0 0 0 0 0 0 0 0 0 0 .4 0"/><feOffset dx="4.0" dy="4.0" in="blurOut2" result="blurOut3"/><feBlend in="SourceGraphic" in2="blurOut3" mode="normal"/></filter></defs><g><ellipse cx="386" cy="18" fill="#000000" filter="url(#f105k2uk21et9v)" rx="10" ry="10" style="stroke: none; stroke-width: 1.0;"/><rect fill="#FEFECE" filter="url(#f105k2uk21et9v)" height="34.1328" rx="12.5" ry="12.5" style="stroke: #A80036; stroke-width: 1.5;" width="136" x="318" y="82"/><text fill="#000000" font-family="sans-serif" font-size="12" lengthAdjust="spacingAndGlyphs" textLength="116" x="328" y="103.6016">null,null,null,null,null</text><rect fill="#FEFECE" filter="url(#f105k2uk21et9v)" height="34.1328" rx="12.5" ry="12.5" style="stroke: #A80036; stroke-width: 1.5;" width="131" x="320.5" y="170"/><text fill="#000000" font-family="sans-serif" font-size="12" lengthAdjust="spacingAndGlyphs" textLength="111" x="330.5" y="191.6016">~E,null,null,null,null</text><rect fill="#FEFECE" filter="url(#f105k2uk21et9v)" height="34.1328" rx="12.5" ry="12.5" style="stroke: #A80036; stroke-width: 1.5;" width="126" x="323" y="258"/><text fill="#000000" font-family="sans-serif" font-size="12" lengthAdjust="spacingAndGlyphs" textLength="106" x="333" y="279.6016">~E,~E,null,null,null</text><rect fill="#FEFECE" filter="url(#f105k2uk21et9v)" height="34.1328" rx="12.5" ry="12.5" style="stroke: #A80036; stroke-width: 1.5;" width="121" x="325.5" y="346"/><text fill="#000000" font-family="sans-serif" font-size="12" lengthAdjust="spacingAndGlyphs" textLength="101" x="335.5" y="367.6016">~E,~E,~E,null,null</text><rect fill="#FEFECE" filter="url(#f105k2uk21et9v)" height="34.1328" rx="12.5" ry="12.5" style="stroke: #A80036; stroke-width: 1.5;" width="116" x="328" y="434"/><text fill="#000000" font-family="sans-serif" font-size="12" lengthAdjust="spacingAndGlyphs" textLength="96" x="338" y="455.6016">~E,~E,~E,~E,null</text><rect fill="#FF0000" filter="url(#f105k2uk21et9v)" height="34.1328" rx="12.5" ry="12.5" style="stroke: #A80036; stroke-width: 1.5;" width="111" x="330.5" y="522"/><text fill="#000000" font-family="sans-serif" font-size="12" lengthAdjust="spacingAndGlyphs" textLength="91" x="340.5" y="543.6016">~E,~E,~E,~E,~E</text><rect fill="#FEFECE" filter="url(#f105k2uk21et9v)" height="34.1328" rx="12.5" ry="12.5" style="stroke: #A80036; stroke-width: 1.5;" width="103" x="409.5" y="610"/><text fill="#000000" font-family="sans-serif" font-size="12" lengthAdjust="spacingAndGlyphs" textLength="83" x="419.5" y="631.6016">E,~E,~E,~E,~E</text><rect fill="#FEFECE" filter="url(#f105k2uk21et9v)" height="34.1328" rx="12.5" ry="12.5" style="stroke: #A80036; stroke-width: 1.5;" width="103" x="433.5" y="1158"/><text fill="#000000" font-family="sans-serif" font-size="12" lengthAdjust="spacingAndGlyphs" textLength="83" x="443.5" y="1179.6016">~E,E,~E,~E,~E</text><rect fill="#FEFECE" filter="url(#f105k2uk21et9v)" height="34.1328" rx="12.5" ry="12.5" style="stroke: #A80036; stroke-width: 1.5;" width="103" x="173.5" y="786"/><text fill="#000000" font-family="sans-serif" font-size="12" lengthAdjust="spacingAndGlyphs" textLength="83" x="183.5" y="807.6016">~E,~E,~E,E,~E</text><rect fill="#FEFECE" filter="url(#f105k2uk21et9v)" height="34.1328" rx="12.5" ry="12.5" style="stroke: #A80036; stroke-width: 1.5;" width="103" x="195.5" y="982"/><text fill="#000000" font-family="sans-serif" font-size="12" lengthAdjust="spacingAndGlyphs" textLength="83" x="205.5" y="1003.6016">~E,~E,E,~E,~E</text><rect fill="#FEFECE" filter="url(#f105k2uk21et9v)" height="34.1328" rx="12.5" ry="12.5" style="stroke: #A80036; stroke-width: 1.5;" width="103" x="389.5" y="786"/><text fill="#000000" font-family="sans-serif" font-size="12" lengthAdjust="spacingAndGlyphs" textLength="83" x="399.5" y="807.6016">~E,~E,~E,~E,E</text><rect fill="#FEFECE" filter="url(#f105k2uk21et9v)" height="34.1328" rx="12.5" ry="12.5" style="stroke: #A80036; stroke-width: 1.5;" width="95" x="278.5" y="874"/><text fill="#000000" font-family="sans-serif" font-size="12" lengthAdjust="spacingAndGlyphs" textLength="75" x="288.5" y="895.6016">~E,~E,~E,E,E</text><rect fill="#FEFECE" filter="url(#f105k2uk21et9v)" height="34.1328" rx="12.5" ry="12.5" style="stroke: #A80036; stroke-width: 1.5;" width="95" x="547.5" y="1246"/><text fill="#000000" font-family="sans-serif" font-size="12" lengthAdjust="spacingAndGlyphs" textLength="75" x="557.5" y="1267.6016">E,E,~E,~E,~E</text><rect fill="#FEFECE" filter="url(#f105k2uk21et9v)" height="34.1328" rx="12.5" ry="12.5" style="stroke: #A80036; stroke-width: 1.5;" width="95" x="269.5" y="1246"/><text fill="#000000" font-family="sans-serif" font-size="12" lengthAdjust="spacingAndGlyphs" textLength="75" x="279.5" y="1267.6016">~E,E,~E,E,~E</text><rect fill="#FEFECE" filter="url(#f105k2uk21et9v)" height="34.1328" rx="12.5" ry="12.5" style="stroke: #A80036; stroke-width: 1.5;" width="95" x="393.5" y="698"/><text fill="#000000" font-family="sans-serif" font-size="12" lengthAdjust="spacingAndGlyphs" textLength="75" x="403.5" y="719.6016">E,~E,~E,~E,E</text><rect fill="#FEFECE" filter="url(#f105k2uk21et9v)" height="34.1328" rx="12.5" ry="12.5" style="stroke: #A80036; stroke-width: 1.5;" width="95" x="163.5" y="874"/><text fill="#000000" font-family="sans-serif" font-size="12" lengthAdjust="spacingAndGlyphs" textLength="75" x="173.5" y="895.6016">~E,~E,E,E,~E</text><rect fill="#FEFECE" filter="url(#f105k2uk21et9v)" height="34.1328" rx="12.5" ry="12.5" style="stroke: #A80036; stroke-width: 1.5;" width="95" x="235.5" y="698"/><text fill="#000000" font-family="sans-serif" font-size="12" lengthAdjust="spacingAndGlyphs" textLength="75" x="245.5" y="719.6016">E,~E,~E,E,~E</text><rect fill="#FEFECE" filter="url(#f105k2uk21et9v)" height="34.1328" rx="12.5" ry="12.5" style="stroke: #A80036; stroke-width: 1.5;" width="95" x="235.5" y="1070"/><text fill="#000000" font-family="sans-serif" font-size="12" lengthAdjust="spacingAndGlyphs" textLength="75" x="245.5" y="1091.6016">~E,E,E,~E,~E</text><rect fill="#FEFECE" filter="url(#f105k2uk21et9v)" height="34.1328" rx="12.5" ry="12.5" style="stroke: #A80036; stroke-width: 1.5;" width="95" x="393.5" y="874"/><text fill="#000000" font-family="sans-serif" font-size="12" lengthAdjust="spacingAndGlyphs" textLength="75" x="403.5" y="895.6016">~E,~E,E,~E,E</text><rect fill="#FEFECE" filter="url(#f105k2uk21et9v)" height="34.1328" rx="12.5" ry="12.5" style="stroke: #A80036; stroke-width: 1.5;" width="95" x="440.5" y="928"/><text fill="#000000" font-family="sans-serif" font-size="12" lengthAdjust="spacingAndGlyphs" textLength="75" x="450.5" y="949.6016">~E,E,~E,~E,E</text><rect fill="#FEFECE" filter="url(#f105k2uk21et9v)" height="34.1328" rx="12.5" ry="12.5" style="stroke: #A80036; stroke-width: 1.5;" width="95" x="358.5" y="1070"/><text fill="#000000" font-family="sans-serif" font-size="12" lengthAdjust="spacingAndGlyphs" textLength="75" x="368.5" y="1091.6016">E,~E,E,~E,~E</text><!--link start to null,null,null,null,null--><path d="M386,28.2587 C386,40.3447 386,60.7784 386,76.586 " fill="none" id="start-null,null,null,null,null" style="stroke: #A80036; stroke-width: 1.0;"/><polygon fill="#A80036" points="386,81.7507,390,72.7507,386,76.7507,382,72.7507,386,81.7507" style="stroke: #A80036; stroke-width: 1.0;"/><text fill="#000000" font-family="sans-serif" font-size="11" lengthAdjust="spacingAndGlyphs" textLength="7" x="387" y="59.6348">1</text><!--link null,null,null,null,null to ~E,null,null,null,null--><path d="M386,116.386 C386,130.2154 386,149.6635 386,164.6491 " fill="none" id="null,null,null,null,null-~E,null,null,null,null" style="stroke: #A80036; stroke-width: 1.0;"/><polygon fill="#A80036" points="386,169.9496,390,160.9496,386,164.9496,382,160.9496,386,169.9496" style="stroke: #A80036; stroke-width: 1.0;"/><text fill="#000000" font-family="sans-serif" font-size="11" lengthAdjust="spacingAndGlyphs" textLength="7" x="387" y="147.6348">1</text><!--link ~E,null,null,null,null to ~E,~E,null,null,null--><path d="M386,204.386 C386,218.2154 386,237.6635 386,252.6491 " fill="none" id="~E,null,null,null,null-~E,~E,null,null,null" style="stroke: #A80036; stroke-width: 1.0;"/><polygon fill="#A80036" points="386,257.9496,390,248.9496,386,252.9496,382,248.9496,386,257.9496" style="stroke: #A80036; stroke-width: 1.0;"/><text fill="#000000" font-family="sans-serif" font-size="11" lengthAdjust="spacingAndGlyphs" textLength="7" x="387" y="235.6348">1</text><!--link ~E,~E,null,null,null to ~E,~E,~E,null,null--><path d="M386,292.386 C386,306.2154 386,325.6635 386,340.6491 " fill="none" id="~E,~E,null,null,null-~E,~E,~E,null,null" style="stroke: #A80036; stroke-width: 1.0;"/><polygon fill="#A80036" points="386,345.9496,390,336.9496,386,340.9496,382,336.9496,386,345.9496" style="stroke: #A80036; stroke-width: 1.0;"/><text fill="#000000" font-family="sans-serif" font-size="11" lengthAdjust="spacingAndGlyphs" textLength="7" x="387" y="323.6348">1</text><!--link ~E,~E,~E,null,null to ~E,~E,~E,~E,null--><path d="M386,380.386 C386,394.2154 386,413.6635 386,428.6491 " fill="none" id="~E,~E,~E,null,null-~E,~E,~E,~E,null" style="stroke: #A80036; stroke-width: 1.0;"/><polygon fill="#A80036" points="386,433.9496,390,424.9496,386,428.9496,382,424.9496,386,433.9496" style="stroke: #A80036; stroke-width: 1.0;"/><text fill="#000000" font-family="sans-serif" font-size="11" lengthAdjust="spacingAndGlyphs" textLength="7" x="387" y="411.6348">1</text><!--link ~E,~E,~E,~E,null to ~E,~E,~E,~E,~E--><path d="M386,468.386 C386,482.2154 386,501.6635 386,516.6491 " fill="none" id="~E,~E,~E,~E,null-~E,~E,~E,~E,~E" style="stroke: #A80036; stroke-width: 1.0;"/><polygon fill="#A80036" points="386,521.9496,390,512.9496,386,516.9496,382,512.9496,386,521.9496" style="stroke: #A80036; stroke-width: 1.0;"/><text fill="#000000" font-family="sans-serif" font-size="11" lengthAdjust="spacingAndGlyphs" textLength="7" x="387" y="499.6348">1</text><!--link ~E,~E,~E,~E,~E to ~E,~E,~E,~E,~E--><path d="M441.6412,531.04 C453.193,531.8779 461.5,534.5312 461.5,539 C461.5,542.7705 455.5862,545.2486 446.7991,546.4342 " fill="none" id="~E,~E,~E,~E,~E-~E,~E,~E,~E,~E" style="stroke: #A80036; stroke-width: 1.0;"/><polygon fill="#A80036" points="441.6412,546.96,451.0005,550.0265,446.6154,546.4529,450.1891,542.0678,441.6412,546.96" style="stroke: #A80036; stroke-width: 1.0;"/><text fill="#000000" font-family="sans-serif" font-size="11" lengthAdjust="spacingAndGlyphs" textLength="21" x="467.5" y="543.6348">227</text><!--link ~E,~E,~E,~E,~E to E,~E,~E,~E,~E--><path d="M400.8176,556.386 C412.9142,570.5793 430.0548,590.6909 442.9512,605.8227 " fill="none" id="~E,~E,~E,~E,~E-E,~E,~E,~E,~E" style="stroke: #A80036; stroke-width: 1.0;"/><polygon fill="#A80036" points="446.4684,609.9496,443.6748,600.5052,443.2251,606.1442,437.5862,605.6945,446.4684,609.9496" style="stroke: #A80036; stroke-width: 1.0;"/><text fill="#000000" font-family="sans-serif" font-size="11" lengthAdjust="spacingAndGlyphs" textLength="14" x="429" y="587.6348">45</text><!--link E,~E,~E,~E,~E to ~E,~E,~E,~E,~E--><path d="M421.8849,609.9768 C413.302,604.6633 404.998,598.0364 399,590 C392.8208,581.7209 389.564,570.8069 387.8535,561.2003 " fill="none" id="E,~E,~E,~E,~E-~E,~E,~E,~E,~E" style="stroke: #A80036; stroke-width: 1.0;"/><polygon fill="#A80036" points="387.0535,556.0229,384.4749,565.5282,387.8171,560.9643,392.381,564.3065,387.0535,556.0229" style="stroke: #A80036; stroke-width: 1.0;"/><text fill="#000000" font-family="sans-serif" font-size="11" lengthAdjust="spacingAndGlyphs" textLength="14" x="400" y="587.6348">45</text><!--link ~E,~E,~E,~E,~E to ~E,E,~E,~E,~E--><path d="M441.6361,542.6215 C527.0691,548.6064 682.9516,561.3644 704,576 C724.8889,590.5246 730,601.5577 730,627 C730,627 730,627 730,945 C730,1045.7723 697.81,1086.823 611,1138 C589.911,1150.4326 564.3454,1158.9452 541.7689,1164.6389 " fill="none" id="~E,~E,~E,~E,~E-~E,E,~E,~E,~E" style="stroke: #A80036; stroke-width: 1.0;"/><polygon fill="#A80036" points="536.7011,1165.8829,546.3952,1167.622,541.5569,1164.6909,544.488,1159.8526,536.7011,1165.8829" style="stroke: #A80036; stroke-width: 1.0;"/><text fill="#000000" font-family="sans-serif" font-size="11" lengthAdjust="spacingAndGlyphs" textLength="14" x="731" y="851.6348">44</text><!--link ~E,E,~E,~E,~E to ~E,~E,~E,~E,~E--><path d="M517.166,1157.9791 C574.4065,1125.096 688,1046.991 688,945 C688,627 688,627 688,627 C688,577.2706 535.1547,553.7599 446.9367,544.3317 " fill="none" id="~E,E,~E,~E,~E-~E,~E,~E,~E,~E" style="stroke: #A80036; stroke-width: 1.0;"/><polygon fill="#A80036" points="441.7434,543.785,450.2751,548.7054,446.7159,544.3086,451.1128,540.7494,441.7434,543.785" style="stroke: #A80036; stroke-width: 1.0;"/><text fill="#000000" font-family="sans-serif" font-size="11" lengthAdjust="spacingAndGlyphs" textLength="14" x="689" y="851.6348">43</text><!--link ~E,~E,~E,~E,~E to ~E,~E,~E,E,~E--><path d="M330.1417,542.9313 C279.0509,547.6537 208.4129,557.3848 188,576 C125.6045,632.9005 145.2305,693.1877 188,766 C191.3731,771.7426 195.8487,777.2305 200.5187,782.1387 " fill="none" id="~E,~E,~E,~E,~E-~E,~E,~E,E,~E" style="stroke: #A80036; stroke-width: 1.0;"/><polygon fill="#A80036" points="204.1127,785.7736,200.6292,776.5614,200.5972,782.2181,194.9405,782.1861,204.1127,785.7736" style="stroke: #A80036; stroke-width: 1.0;"/><text fill="#000000" font-family="sans-serif" font-size="11" lengthAdjust="spacingAndGlyphs" textLength="14" x="152" y="675.6348">43</text><!--link ~E,~E,~E,E,~E to ~E,~E,~E,~E,~E--><path d="M221.0952,785.8483 C217.0665,764.3839 212.9108,726.9298 225,698 C251.0866,635.5738 314.9415,585.1796 353.9406,558.8822 " fill="none" id="~E,~E,~E,E,~E-~E,~E,~E,~E,~E" style="stroke: #A80036; stroke-width: 1.0;"/><polygon fill="#A80036" points="358.1016,556.1041,348.3955,557.7747,353.9432,558.8804,352.8375,564.4281,358.1016,556.1041" style="stroke: #A80036; stroke-width: 1.0;"/><text fill="#000000" font-family="sans-serif" font-size="11" lengthAdjust="spacingAndGlyphs" textLength="14" x="244" y="675.6348">45</text><!--link ~E,~E,~E,~E,~E to ~E,~E,E,~E,~E--><path d="M330.152,541.9224 C236.5904,547.2466 56.0051,559.5158 32,576 C11.0266,590.4023 6,601.5577 6,627 C6,627 6,627 6,847 C6,933.7121 118.9968,972.9417 190.2439,989.0586 " fill="none" id="~E,~E,~E,~E,~E-~E,~E,E,~E,~E" style="stroke: #A80036; stroke-width: 1.0;"/><polygon fill="#A80036" points="195.2995,990.1794,187.3787,984.3261,190.418,989.0971,185.647,992.1364,195.2995,990.1794" style="stroke: #A80036; stroke-width: 1.0;"/><text fill="#000000" font-family="sans-serif" font-size="11" lengthAdjust="spacingAndGlyphs" textLength="14" x="7" y="763.6348">44</text><!--link ~E,~E,E,~E,~E to ~E,~E,~E,~E,~E--><path d="M207.684,981.9243 C149.6893,953.7663 48,891.7408 48,803 C48,627 48,627 48,627 C48,570.4077 227.6967,549.558 325.0415,542.4152 " fill="none" id="~E,~E,E,~E,~E-~E,~E,~E,~E,~E" style="stroke: #A80036; stroke-width: 1.0;"/><polygon fill="#A80036" points="330.1862,542.0449,320.9221,538.7017,325.1991,542.404,321.4968,546.681,330.1862,542.0449" style="stroke: #A80036; stroke-width: 1.0;"/><text fill="#000000" font-family="sans-serif" font-size="11" lengthAdjust="spacingAndGlyphs" textLength="14" x="49" y="763.6348">46</text><!--link ~E,~E,E,~E,~E to ~E,~E,E,~E,~E--><path d="M298.739,990.9721 C310.1727,991.7264 318.5,994.4023 318.5,999 C318.5,1002.8793 312.5717,1005.3905 303.8511,1006.5336 " fill="none" id="~E,~E,E,~E,~E-~E,~E,E,~E,~E" style="stroke: #A80036; stroke-width: 1.0;"/><polygon fill="#A80036" points="298.739,1007.0279,308.0823,1010.1428,303.7158,1006.5465,307.312,1002.1799,298.739,1007.0279" style="stroke: #A80036; stroke-width: 1.0;"/><text fill="#000000" font-family="sans-serif" font-size="11" lengthAdjust="spacingAndGlyphs" textLength="7" x="324.5" y="1003.6348">7</text><!--link ~E,~E,~E,~E,~E to ~E,~E,~E,~E,E--><path d="M441.8328,545.6653 C481.837,553.682 533.0539,571.3054 559,610 C600.2952,671.5853 516.4973,747.3073 469.6592,782.8169 " fill="none" id="~E,~E,~E,~E,~E-~E,~E,~E,~E,E" style="stroke: #A80036; stroke-width: 1.0;"/><polygon fill="#A80036" points="465.5237,785.9207,475.1229,783.7174,469.5227,782.9193,470.3207,777.319,465.5237,785.9207" style="stroke: #A80036; stroke-width: 1.0;"/><text fill="#000000" font-family="sans-serif" font-size="11" lengthAdjust="spacingAndGlyphs" textLength="14" x="568" y="675.6348">47</text><!--link ~E,~E,~E,~E,E to ~E,~E,~E,~E,~E--><path d="M421.7937,785.8674 C398.6401,763.7049 361.1937,722.6139 348,678 C335.7938,636.7253 357.1573,588.1475 372.482,560.7251 " fill="none" id="~E,~E,~E,~E,E-~E,~E,~E,~E,~E" style="stroke: #A80036; stroke-width: 1.0;"/><polygon fill="#A80036" points="375.0734,556.1838,367.1387,562.0182,372.5953,560.5265,374.0871,565.9831,375.0734,556.1838" style="stroke: #A80036; stroke-width: 1.0;"/><text fill="#000000" font-family="sans-serif" font-size="11" lengthAdjust="spacingAndGlyphs" textLength="14" x="349" y="675.6348">44</text><!--link ~E,~E,~E,~E,E to ~E,~E,~E,E,E--><path d="M418.5538,820.1762 C399.6362,834.6523 372.5325,855.3925 352.5419,870.6897 " fill="none" id="~E,~E,~E,~E,E-~E,~E,~E,E,E" style="stroke: #A80036; stroke-width: 1.0;"/><polygon fill="#A80036" points="348.3895,873.8671,357.9678,871.5744,352.3603,870.8286,353.1061,865.2211,348.3895,873.8671" style="stroke: #A80036; stroke-width: 1.0;"/><text fill="#000000" font-family="sans-serif" font-size="11" lengthAdjust="spacingAndGlyphs" textLength="7" x="392" y="851.6348">1</text><!--link ~E,~E,~E,E,E to ~E,~E,~E,E,~E--><path d="M306.4308,873.9496 C289.9722,859.6095 266.3847,839.0579 248.8285,823.7615 " fill="none" id="~E,~E,~E,E,E-~E,~E,~E,E,~E" style="stroke: #A80036; stroke-width: 1.0;"/><polygon fill="#A80036" points="244.9543,820.386,249.1124,829.3141,248.7241,823.6706,254.3677,823.2823,244.9543,820.386" style="stroke: #A80036; stroke-width: 1.0;"/><text fill="#000000" font-family="sans-serif" font-size="11" lengthAdjust="spacingAndGlyphs" textLength="7" x="283" y="851.6348">2</text><!--link ~E,~E,~E,E,~E to ~E,~E,~E,E,E--><path d="M265.2885,820.1084 C275.3587,825.5432 285.6559,832.206 294,840 C302.7965,848.2166 310.1542,859.3607 315.5877,869.136 " fill="none" id="~E,~E,~E,E,~E-~E,~E,~E,E,E" style="stroke: #A80036; stroke-width: 1.0;"/><polygon fill="#A80036" points="318.0983,873.806,317.3595,863.9849,315.7306,869.4021,310.3133,867.7732,318.0983,873.806" style="stroke: #A80036; stroke-width: 1.0;"/><text fill="#000000" font-family="sans-serif" font-size="11" lengthAdjust="spacingAndGlyphs" textLength="7" x="307" y="851.6348">1</text><!--link E,~E,~E,~E,~E to E,E,~E,~E,~E--><path d="M512.5328,639.8777 C567.2728,657.0124 646,693.1092 646,759 C646,759 646,759 646,945 C646,1070.3065 734.8775,1119.4079 669,1226 C663.7754,1234.4536 655.9697,1241.0404 647.3596,1246.152 " fill="none" id="E,~E,~E,~E,~E-E,E,~E,~E,~E" style="stroke: #A80036; stroke-width: 1.0;"/><polygon fill="#A80036" points="642.5048,1248.8424,652.3157,1247.9786,646.8781,1246.4188,648.4379,1240.9812,642.5048,1248.8424" style="stroke: #A80036; stroke-width: 1.0;"/><text fill="#000000" font-family="sans-serif" font-size="11" lengthAdjust="spacingAndGlyphs" textLength="7" x="647" y="949.6348">2</text><!--link E,E,~E,~E,~E to E,~E,~E,~E,~E--><path d="M594.7643,1245.766 C593.5328,1183.0072 585.9113,961.1819 539,786 C523.7533,729.064 515.6571,715.5067 487,664 C484.0776,658.7473 480.5776,653.3271 477.107,648.3093 " fill="none" id="E,E,~E,~E,~E-E,~E,~E,~E,~E" style="stroke: #A80036; stroke-width: 1.0;"/><polygon fill="#A80036" points="474.2119,644.2016,476.1271,653.8625,477.0923,648.2886,482.6662,649.2538,474.2119,644.2016" style="stroke: #A80036; stroke-width: 1.0;"/><text fill="#000000" font-family="sans-serif" font-size="11" lengthAdjust="spacingAndGlyphs" textLength="7" x="573" y="949.6348">1</text><!--link E,E,~E,~E,~E to ~E,E,~E,~E,~E--><path d="M547.1012,1251.8187 C531.7066,1246.2243 515.6423,1237.9916 504,1226 C496.3775,1218.1488 491.7632,1206.9637 488.9954,1197.0679 " fill="none" id="E,E,~E,~E,~E-~E,E,~E,~E,~E" style="stroke: #A80036; stroke-width: 1.0;"/><polygon fill="#A80036" points="487.7101,1192.035,486.0617,1201.7449,488.9474,1196.8795,493.8128,1199.7652,487.7101,1192.035" style="stroke: #A80036; stroke-width: 1.0;"/><text fill="#000000" font-family="sans-serif" font-size="11" lengthAdjust="spacingAndGlyphs" textLength="7" x="505" y="1223.6348">3</text><!--link ~E,E,~E,~E,~E to E,E,~E,~E,~E--><path d="M506.4702,1192.1762 C524.4897,1206.5918 550.2739,1227.2191 569.3718,1242.4974 " fill="none" id="~E,E,~E,~E,~E-E,E,~E,~E,~E" style="stroke: #A80036; stroke-width: 1.0;"/><polygon fill="#A80036" points="573.5839,1245.8671,569.0551,1237.1213,569.6796,1242.7435,564.0574,1243.3681,573.5839,1245.8671" style="stroke: #A80036; stroke-width: 1.0;"/><text fill="#000000" font-family="sans-serif" font-size="11" lengthAdjust="spacingAndGlyphs" textLength="7" x="548" y="1223.6348">2</text><!--link E,~E,~E,~E,~E to E,~E,~E,~E,~E--><path d="M512.739,618.9721 C524.1727,619.7264 532.5,622.4023 532.5,627 C532.5,630.8793 526.5717,633.3905 517.8511,634.5336 " fill="none" id="E,~E,~E,~E,~E-E,~E,~E,~E,~E" style="stroke: #A80036; stroke-width: 1.0;"/><polygon fill="#A80036" points="512.739,635.0279,522.0823,638.1428,517.7158,634.5465,521.312,630.1799,512.739,635.0279" style="stroke: #A80036; stroke-width: 1.0;"/><text fill="#000000" font-family="sans-serif" font-size="11" lengthAdjust="spacingAndGlyphs" textLength="7" x="538.5" y="631.6348">5</text><!--link ~E,~E,~E,E,~E to ~E,E,~E,E,~E--><path d="M173.2203,812.5319 C140.7835,819.3707 102.7869,829.2466 90,840 C74.4403,853.0853 48,929.2772 48,945 C48,945 48,945 48,1175 C48,1200.4423 53.3705,1211.1093 74,1226 C103.5745,1247.3474 202.0039,1256.6833 264.1453,1260.5304 " fill="none" id="~E,~E,~E,E,~E-~E,E,~E,E,~E" style="stroke: #A80036; stroke-width: 1.0;"/><polygon fill="#A80036" points="269.2977,1260.842,260.5556,1256.306,264.3068,1260.5401,260.0726,1264.2914,269.2977,1260.842" style="stroke: #A80036; stroke-width: 1.0;"/><text fill="#000000" font-family="sans-serif" font-size="11" lengthAdjust="spacingAndGlyphs" textLength="7" x="49" y="1047.6348">1</text><!--link ~E,E,~E,E,~E to ~E,~E,~E,E,~E--><path d="M269.4134,1254.5061 C202.8497,1241.2483 90,1213.1464 90,1175 C90,945 90,945 90,945 C90,888.9417 145.9464,846.2114 185.8079,822.8809 " fill="none" id="~E,E,~E,E,~E-~E,~E,~E,E,~E" style="stroke: #A80036; stroke-width: 1.0;"/><polygon fill="#A80036" points="190.5845,820.1322,180.7888,821.1542,186.2508,822.626,184.7789,828.0881,190.5845,820.1322" style="stroke: #A80036; stroke-width: 1.0;"/><text fill="#000000" font-family="sans-serif" font-size="11" lengthAdjust="spacingAndGlyphs" textLength="7" x="91" y="1047.6348">3</text><!--link ~E,E,~E,E,~E to ~E,E,~E,~E,~E--><path d="M349.7082,1245.8671 C377.7827,1231.1614 418.2426,1209.9682 447.5969,1194.5921 " fill="none" id="~E,E,~E,E,~E-~E,E,~E,~E,~E" style="stroke: #A80036; stroke-width: 1.0;"/><polygon fill="#A80036" points="452.2091,1192.1762,442.3806,1192.8091,447.78,1194.4963,446.0928,1199.8957,452.2091,1192.1762" style="stroke: #A80036; stroke-width: 1.0;"/><text fill="#000000" font-family="sans-serif" font-size="11" lengthAdjust="spacingAndGlyphs" textLength="7" x="413" y="1223.6348">1</text><!--link ~E,E,~E,~E,~E to ~E,E,~E,E,~E--><path d="M468.7954,1192.0812 C457.6322,1203.0286 441.9795,1216.8503 426,1226 C408.642,1235.939 388.1952,1243.7621 369.7282,1249.6045 " fill="none" id="~E,E,~E,~E,~E-~E,E,~E,E,~E" style="stroke: #A80036; stroke-width: 1.0;"/><polygon fill="#A80036" points="364.5762,1251.2,374.3567,1252.3586,369.3524,1249.7209,371.9901,1244.7166,364.5762,1251.2" style="stroke: #A80036; stroke-width: 1.0;"/><text fill="#000000" font-family="sans-serif" font-size="11" lengthAdjust="spacingAndGlyphs" textLength="7" x="447" y="1223.6348">3</text><!--link E,~E,~E,~E,~E to E,~E,~E,~E,E--><path d="M468.8939,644.3359 C472.3586,654.3645 474.8586,667.1145 471,678 C469.0141,683.6024 465.7786,688.9755 462.1516,693.8064 " fill="none" id="E,~E,~E,~E,~E-E,~E,~E,~E,E" style="stroke: #A80036; stroke-width: 1.0;"/><polygon fill="#A80036" points="459.0317,697.7301,467.7641,693.1753,462.1437,693.8166,461.5024,688.1962,459.0317,697.7301" style="stroke: #A80036; stroke-width: 1.0;"/><text fill="#000000" font-family="sans-serif" font-size="11" lengthAdjust="spacingAndGlyphs" textLength="7" x="474" y="675.6348">2</text><!--link E,~E,~E,~E,E to E,~E,~E,~E,~E--><path d="M444.8751,697.9496 C448.0247,684.0915 452.4926,664.4325 455.927,649.3213 " fill="none" id="E,~E,~E,~E,E-E,~E,~E,~E,~E" style="stroke: #A80036; stroke-width: 1.0;"/><polygon fill="#A80036" points="457.0486,644.386,451.1534,652.2756,455.9404,649.2617,458.9544,654.0487,457.0486,644.386" style="stroke: #A80036; stroke-width: 1.0;"/><text fill="#000000" font-family="sans-serif" font-size="11" lengthAdjust="spacingAndGlyphs" textLength="7" x="454" y="675.6348">2</text><!--link E,~E,~E,~E,E to ~E,~E,~E,~E,E--><path d="M431.8274,732.2098 C429.0605,738.2875 426.39,745.2838 425,752 C423.0007,761.6607 425.4213,772.0931 428.9356,780.99 " fill="none" id="E,~E,~E,~E,E-~E,~E,~E,~E,E" style="stroke: #A80036; stroke-width: 1.0;"/><polygon fill="#A80036" points="430.9794,785.7602,431.1114,775.9122,429.0101,781.1643,423.758,779.0631,430.9794,785.7602" style="stroke: #A80036; stroke-width: 1.0;"/><text fill="#000000" font-family="sans-serif" font-size="11" lengthAdjust="spacingAndGlyphs" textLength="7" x="426" y="763.6348">1</text><!--link ~E,~E,~E,~E,E to E,~E,~E,~E,E--><path d="M441,785.9496 C441,772.212 441,752.774 441,737.7166 " fill="none" id="~E,~E,~E,~E,E-E,~E,~E,~E,E" style="stroke: #A80036; stroke-width: 1.0;"/><polygon fill="#A80036" points="441,732.386,437,741.386,441,737.386,445,741.386,441,732.386" style="stroke: #A80036; stroke-width: 1.0;"/><text fill="#000000" font-family="sans-serif" font-size="11" lengthAdjust="spacingAndGlyphs" textLength="7" x="442" y="763.6348">1</text><!--link ~E,~E,~E,E,~E to ~E,~E,~E,E,~E--><path d="M276.739,794.9721 C288.1727,795.7264 296.5,798.4023 296.5,803 C296.5,806.8793 290.5717,809.3905 281.8511,810.5336 " fill="none" id="~E,~E,~E,E,~E-~E,~E,~E,E,~E" style="stroke: #A80036; stroke-width: 1.0;"/><polygon fill="#A80036" points="276.739,811.0279,286.0823,814.1428,281.7158,810.5465,285.312,806.1799,276.739,811.0279" style="stroke: #A80036; stroke-width: 1.0;"/><text fill="#000000" font-family="sans-serif" font-size="11" lengthAdjust="spacingAndGlyphs" textLength="7" x="302.5" y="807.6348">4</text><!--link ~E,~E,~E,E,~E to ~E,~E,E,E,~E--><path d="M215.8274,820.2098 C213.0605,826.2875 210.39,833.2838 209,840 C207.0785,849.2845 207.1127,859.7173 207.8034,868.7166 " fill="none" id="~E,~E,~E,E,~E-~E,~E,E,E,~E" style="stroke: #A80036; stroke-width: 1.0;"/><polygon fill="#A80036" points="208.2761,873.83,211.4304,864.4999,207.8157,868.8512,203.4643,865.2366,208.2761,873.83" style="stroke: #A80036; stroke-width: 1.0;"/><text fill="#000000" font-family="sans-serif" font-size="11" lengthAdjust="spacingAndGlyphs" textLength="7" x="210" y="851.6348">2</text><!--link ~E,~E,E,E,~E to ~E,~E,~E,E,~E--><path d="M214.4577,873.7144 C215.6492,867.5095 216.9475,860.4523 218,854 C219.5395,844.562 221.0149,834.1039 222.211,825.1274 " fill="none" id="~E,~E,E,E,~E-~E,~E,~E,E,~E" style="stroke: #A80036; stroke-width: 1.0;"/><polygon fill="#A80036" points="222.8812,820.0322,217.7413,828.4335,222.2289,824.9895,225.6729,829.4771,222.8812,820.0322" style="stroke: #A80036; stroke-width: 1.0;"/><text fill="#000000" font-family="sans-serif" font-size="11" lengthAdjust="spacingAndGlyphs" textLength="7" x="222" y="851.6348">1</text><!--link ~E,~E,E,E,~E to ~E,~E,E,~E,~E--><path d="M208.231,908.034 C206.5661,922.8592 205.9491,944.6332 213,962 C215.3074,967.6834 218.9122,973.036 222.9277,977.8108 " fill="none" id="~E,~E,E,E,~E-~E,~E,E,~E,~E" style="stroke: #A80036; stroke-width: 1.0;"/><polygon fill="#A80036" points="226.3777,981.6802,223.3739,972.3006,223.0502,977.9482,217.4027,977.6245,226.3777,981.6802" style="stroke: #A80036; stroke-width: 1.0;"/><text fill="#000000" font-family="sans-serif" font-size="11" lengthAdjust="spacingAndGlyphs" textLength="7" x="214" y="949.6348">2</text><!--link ~E,~E,E,~E,~E to ~E,~E,E,E,~E--><path d="M241.2303,981.691 C235.0428,963.1285 225.1971,933.5912 218.4332,913.2995 " fill="none" id="~E,~E,E,~E,~E-~E,~E,E,E,~E" style="stroke: #A80036; stroke-width: 1.0;"/><polygon fill="#A80036" points="216.784,908.3521,215.8353,918.1552,218.3651,913.0955,223.4248,915.6253,216.784,908.3521" style="stroke: #A80036; stroke-width: 1.0;"/><text fill="#000000" font-family="sans-serif" font-size="11" lengthAdjust="spacingAndGlyphs" textLength="7" x="236" y="949.6348">1</text><!--link E,~E,~E,~E,~E to E,~E,~E,E,~E--><path d="M445.2051,644.2425 C434.2881,655.258 418.9135,669.095 403,678 C382.2174,689.6297 357.3212,698.0714 335.6062,703.9283 " fill="none" id="E,~E,~E,~E,~E-E,~E,~E,E,~E" style="stroke: #A80036; stroke-width: 1.0;"/><polygon fill="#A80036" points="330.737,705.213,340.4597,706.7844,335.5715,703.9373,338.4186,699.0491,330.737,705.213" style="stroke: #A80036; stroke-width: 1.0;"/><text fill="#000000" font-family="sans-serif" font-size="11" lengthAdjust="spacingAndGlyphs" textLength="7" x="424" y="675.6348">2</text><!--link E,~E,~E,E,~E to E,~E,~E,~E,~E--><path d="M324.9536,697.9845 C339.0903,691.9783 354.8615,684.9766 369,678 C380.42,672.3648 382.8705,670.1893 394,664 C404.1712,658.3436 415.2253,652.2267 425.3675,646.6265 " fill="none" id="E,~E,~E,E,~E-E,~E,~E,~E,~E" style="stroke: #A80036; stroke-width: 1.0;"/><polygon fill="#A80036" points="429.9569,644.0932,420.1446,644.9406,425.5795,646.5095,424.0106,651.9444,429.9569,644.0932" style="stroke: #A80036; stroke-width: 1.0;"/><text fill="#000000" font-family="sans-serif" font-size="11" lengthAdjust="spacingAndGlyphs" textLength="7" x="395" y="675.6348">2</text><!--link ~E,~E,~E,E,~E to E,~E,~E,E,~E--><path d="M240.6112,785.9024 C245.799,779.8337 251.4162,772.8144 256,766 C262.1902,756.7975 268.0757,746.017 272.7624,736.7441 " fill="none" id="~E,~E,~E,E,~E-E,~E,~E,E,~E" style="stroke: #A80036; stroke-width: 1.0;"/><polygon fill="#A80036" points="275.0993,732.0488,267.5082,738.3238,272.8715,736.525,274.6702,741.8883,275.0993,732.0488" style="stroke: #A80036; stroke-width: 1.0;"/><text fill="#000000" font-family="sans-serif" font-size="11" lengthAdjust="spacingAndGlyphs" textLength="7" x="266" y="763.6348">1</text><!--link E,~E,~E,E,~E to ~E,~E,~E,E,~E--><path d="M260.6734,732.1467 C254.2938,737.9054 247.7827,744.7289 243,752 C237.2532,760.7369 233.0998,771.5247 230.2411,780.9253 " fill="none" id="E,~E,~E,E,~E-~E,~E,~E,E,~E" style="stroke: #A80036; stroke-width: 1.0;"/><polygon fill="#A80036" points="228.7842,785.9833,235.1191,778.4422,230.1682,781.1787,227.4317,776.2277,228.7842,785.9833" style="stroke: #A80036; stroke-width: 1.0;"/><text fill="#000000" font-family="sans-serif" font-size="11" lengthAdjust="spacingAndGlyphs" textLength="7" x="244" y="763.6348">1</text><!--link ~E,E,~E,~E,~E to ~E,E,~E,~E,~E--><path d="M536.739,1166.9721 C548.1727,1167.7264 556.5,1170.4023 556.5,1175 C556.5,1178.8793 550.5717,1181.3905 541.8511,1182.5336 " fill="none" id="~E,E,~E,~E,~E-~E,E,~E,~E,~E" style="stroke: #A80036; stroke-width: 1.0;"/><polygon fill="#A80036" points="536.739,1183.0279,546.0823,1186.1428,541.7158,1182.5465,545.312,1178.1799,536.739,1183.0279" style="stroke: #A80036; stroke-width: 1.0;"/><text fill="#000000" font-family="sans-serif" font-size="11" lengthAdjust="spacingAndGlyphs" textLength="7" x="562.5" y="1179.6348">3</text><!--link ~E,~E,~E,~E,E to ~E,~E,~E,~E,E--><path d="M492.739,794.9721 C504.1727,795.7264 512.5,798.4023 512.5,803 C512.5,806.8793 506.5717,809.3905 497.8511,810.5336 " fill="none" id="~E,~E,~E,~E,E-~E,~E,~E,~E,E" style="stroke: #A80036; stroke-width: 1.0;"/><polygon fill="#A80036" points="492.739,811.0279,502.0823,814.1428,497.7158,810.5465,501.312,806.1799,492.739,811.0279" style="stroke: #A80036; stroke-width: 1.0;"/><text fill="#000000" font-family="sans-serif" font-size="11" lengthAdjust="spacingAndGlyphs" textLength="7" x="518.5" y="807.6348">4</text><!--link ~E,E,~E,~E,~E to ~E,E,E,~E,~E--><path d="M435.7481,1157.9893 C419.4438,1152.0376 401.3051,1145.0676 385,1138 C363.0624,1128.491 339.1235,1116.604 319.9535,1106.6988 " fill="none" id="~E,E,~E,~E,~E-~E,E,E,~E,~E" style="stroke: #A80036; stroke-width: 1.0;"/><polygon fill="#A80036" points="315.1866,1104.2259,321.3334,1111.9211,319.6249,1106.5285,325.0175,1104.8199,315.1866,1104.2259" style="stroke: #A80036; stroke-width: 1.0;"/><text fill="#000000" font-family="sans-serif" font-size="11" lengthAdjust="spacingAndGlyphs" textLength="7" x="386" y="1135.6348">3</text><!--link ~E,E,E,~E,~E to ~E,E,~E,~E,~E--><path d="M330.6409,1100.4681 C350.8327,1106.755 374.4073,1114.8702 395,1124 C415.1096,1132.9156 436.5788,1144.9746 453.5032,1155.1282 " fill="none" id="~E,E,E,~E,~E-~E,E,~E,~E,~E" style="stroke: #A80036; stroke-width: 1.0;"/><polygon fill="#A80036" points="458.1513,1157.9373,452.5175,1149.8589,453.8721,1155.3512,448.3798,1156.7057,458.1513,1157.9373" style="stroke: #A80036; stroke-width: 1.0;"/><text fill="#000000" font-family="sans-serif" font-size="11" lengthAdjust="spacingAndGlyphs" textLength="7" x="425" y="1135.6348">2</text><!--link ~E,E,E,~E,~E to ~E,~E,E,~E,~E--><path d="M261.7396,1069.7936 C256.2364,1064.1241 251.0154,1057.3646 248,1050 C244.3534,1041.0938 243.6226,1030.5587 243.9892,1021.3826 " fill="none" id="~E,E,E,~E,~E-~E,~E,E,~E,~E" style="stroke: #A80036; stroke-width: 1.0;"/><polygon fill="#A80036" points="244.318,1016.1595,239.7602,1024.8903,244.0037,1021.1496,247.7444,1025.3931,244.318,1016.1595" style="stroke: #A80036; stroke-width: 1.0;"/><text fill="#000000" font-family="sans-serif" font-size="11" lengthAdjust="spacingAndGlyphs" textLength="7" x="249" y="1047.6348">3</text><!--link ~E,~E,E,~E,~E to ~E,E,E,~E,~E--><path d="M254.1124,1016.386 C259.8196,1030.3367 267.8657,1050.0051 274.0174,1065.0424 " fill="none" id="~E,~E,E,~E,~E-~E,E,E,~E,~E" style="stroke: #A80036; stroke-width: 1.0;"/><polygon fill="#A80036" points="276.0248,1069.9496,276.3191,1060.1051,274.1315,1065.3219,268.9148,1063.1344,276.0248,1069.9496" style="stroke: #A80036; stroke-width: 1.0;"/><text fill="#000000" font-family="sans-serif" font-size="11" lengthAdjust="spacingAndGlyphs" textLength="7" x="269" y="1047.6348">2</text><!--link ~E,~E,~E,~E,E to ~E,~E,E,~E,E--><path d="M441,820.386 C441,834.2154 441,853.6635 441,868.6491 " fill="none" id="~E,~E,~E,~E,E-~E,~E,E,~E,E" style="stroke: #A80036; stroke-width: 1.0;"/><polygon fill="#A80036" points="441,873.9496,445,864.9496,441,868.9496,437,864.9496,441,873.9496" style="stroke: #A80036; stroke-width: 1.0;"/><text fill="#000000" font-family="sans-serif" font-size="11" lengthAdjust="spacingAndGlyphs" textLength="7" x="442" y="851.6348">1</text><!--link ~E,~E,E,~E,E to ~E,~E,E,~E,~E--><path d="M410.2601,908.1129 C375.495,927.4667 318.9781,958.9297 282.3987,979.2935 " fill="none" id="~E,~E,E,~E,E-~E,~E,E,~E,~E" style="stroke: #A80036; stroke-width: 1.0;"/><polygon fill="#A80036" points="277.5961,981.9671,287.4053,981.0842,281.9647,979.535,283.514,974.0944,277.5961,981.9671" style="stroke: #A80036; stroke-width: 1.0;"/><text fill="#000000" font-family="sans-serif" font-size="11" lengthAdjust="spacingAndGlyphs" textLength="7" x="374" y="949.6348">1</text><!--link ~E,~E,~E,~E,E to ~E,E,~E,~E,E--><path d="M460.412,820.1021 C473.829,833.2963 490.552,852.8255 498,874 C503.5548,889.7922 500.5137,908.5862 496.3751,922.8698 " fill="none" id="~E,~E,~E,~E,E-~E,E,~E,~E,E" style="stroke: #A80036; stroke-width: 1.0;"/><polygon fill="#A80036" points="494.8146,927.9143,501.2958,920.4985,496.2923,923.1376,493.6531,918.1342,494.8146,927.9143" style="stroke: #A80036; stroke-width: 1.0;"/><text fill="#000000" font-family="sans-serif" font-size="11" lengthAdjust="spacingAndGlyphs" textLength="7" x="489" y="851.6348">1</text><!--link ~E,E,~E,~E,E to ~E,E,~E,~E,~E--><path d="M487.7745,962.2874 C487.2379,1003.4304 485.8853,1107.1305 485.2894,1152.8098 " fill="none" id="~E,E,~E,~E,E-~E,E,~E,~E,~E" style="stroke: #A80036; stroke-width: 1.0;"/><polygon fill="#A80036" points="485.224,1157.8258,489.3412,1148.8788,485.2893,1152.8262,481.3419,1148.7743,485.224,1157.8258" style="stroke: #A80036; stroke-width: 1.0;"/><text fill="#000000" font-family="sans-serif" font-size="11" lengthAdjust="spacingAndGlyphs" textLength="7" x="488" y="1047.6348">1</text><!--link ~E,~E,E,~E,~E to E,~E,E,~E,~E--><path d="M278.0343,1016.1762 C304.5183,1030.834 342.6063,1051.9142 370.3391,1067.2632 " fill="none" id="~E,~E,E,~E,~E-E,~E,E,~E,~E" style="stroke: #A80036; stroke-width: 1.0;"/><polygon fill="#A80036" points="375.044,1069.8671,369.1066,1062.0091,370.6694,1067.4459,365.2326,1069.0086,375.044,1069.8671" style="stroke: #A80036; stroke-width: 1.0;"/><text fill="#000000" font-family="sans-serif" font-size="11" lengthAdjust="spacingAndGlyphs" textLength="7" x="338" y="1047.6348">1</text><!--link E,~E,E,~E,~E to E,~E,~E,~E,~E--><path d="M453.5933,1073.3945 C469.4713,1067.6057 486.7362,1059.8702 501,1050 C544.2205,1020.0925 561.2008,1011.0822 580,962 C627.8859,836.9764 624.4823,764.473 536,664 C529.9277,657.1048 522.2746,651.3576 514.1933,646.6122 " fill="none" id="E,~E,E,~E,~E-E,~E,~E,~E,~E" style="stroke: #A80036; stroke-width: 1.0;"/><polygon fill="#A80036" points="509.667,644.078,515.566,651.9648,514.0298,646.5205,519.4741,644.9843,509.667,644.078" style="stroke: #A80036; stroke-width: 1.0;"/><text fill="#000000" font-family="sans-serif" font-size="11" lengthAdjust="spacingAndGlyphs" textLength="7" x="611" y="851.6348">1</text><!--
@startuml
(*) - -> [1] "null,null,null,null,null"
"null,null,null,null,null" - -> [1] "~E,null,null,null,null"
"~E,null,null,null,null" - -> [1] "~E,~E,null,null,null"
"~E,~E,null,null,null" - -> [1] "~E,~E,~E,null,null"
"~E,~E,~E,null,null" - -> [1] "~E,~E,~E,~E,null"
"~E,~E,~E,~E,null" - -> [1] "~E,~E,~E,~E,~E"
"~E,~E,~E,~E,~E" - -> [227] "~E,~E,~E,~E,~E"
"~E,~E,~E,~E,~E" - -> [45] "E,~E,~E,~E,~E"
"E,~E,~E,~E,~E" - -> [45] "~E,~E,~E,~E,~E"
"~E,~E,~E,~E,~E" - -> [44] "~E,E,~E,~E,~E"
"~E,~E,~E,~E,~E" - -> [43] "~E,~E,~E,E,~E"
"~E,~E,~E,E,~E" - -> [45] "~E,~E,~E,~E,~E"
"~E,~E,~E,~E,~E" - -> [44] "~E,~E,E,~E,~E"
"~E,~E,E,~E,~E" - -> [7] "~E,~E,E,~E,~E"
"~E,~E,E,~E,~E" - -> [46] "~E,~E,~E,~E,~E"
"~E,~E,~E,~E,~E" - -> [47] "~E,~E,~E,~E,E"
"~E,~E,~E,~E,E" - -> [1] "~E,~E,~E,E,E"
"~E,~E,~E,E,E" - -> [2] "~E,~E,~E,E,~E"
"E,~E,~E,~E,~E" - -> [2] "E,E,~E,~E,~E"
"E,E,~E,~E,~E" - -> [3] "~E,E,~E,~E,~E"
"~E,~E,~E,~E,E" - -> [44] "~E,~E,~E,~E,~E"
"E,~E,~E,~E,~E" - -> [5] "E,~E,~E,~E,~E"
"~E,~E,~E,E,~E" - -> [1] "~E,E,~E,E,~E"
"~E,E,~E,E,~E" - -> [1] "~E,E,~E,~E,~E"
"E,~E,~E,~E,~E" - -> [2] "E,~E,~E,~E,E"
"E,~E,~E,~E,E" - -> [1] "~E,~E,~E,~E,E"
"~E,~E,~E,E,~E" - -> [4] "~E,~E,~E,E,~E"
"~E,~E,~E,E,~E" - -> [2] "~E,~E,E,E,~E"
"~E,~E,E,E,~E" - -> [2] "~E,~E,E,~E,~E"
"~E,E,~E,~E,~E" - -> [2] "E,E,~E,~E,~E"
"E,~E,~E,~E,E" - -> [2] "E,~E,~E,~E,~E"
"E,~E,~E,~E,~E" - -> [2] "E,~E,~E,E,~E"
"E,~E,~E,E,~E" - -> [2] "E,~E,~E,~E,~E"
"~E,E,~E,~E,~E" - -> [3] "~E,E,~E,E,~E"
"~E,E,~E,E,~E" - -> [3] "~E,~E,~E,E,~E"
"~E,~E,~E,E,~E" - -> [1] "E,~E,~E,E,~E"
"~E,E,~E,~E,~E" - -> [3] "~E,E,~E,~E,~E"
"~E,~E,~E,~E,E" - -> [4] "~E,~E,~E,~E,E"
"~E,E,~E,~E,~E" - -> [3] "~E,E,E,~E,~E"
"~E,E,E,~E,~E" - -> [3] "~E,~E,E,~E,~E"
"~E,~E,~E,~E,E" - -> [1] "~E,~E,E,~E,E"
"~E,~E,E,~E,E" - -> [1] "~E,~E,E,~E,~E"
"~E,~E,E,~E,~E" - -> [2] "~E,E,E,~E,~E"
"~E,E,E,~E,~E" - -> [2] "~E,E,~E,~E,~E"
"E,E,~E,~E,~E" - -> [1] "E,~E,~E,~E,~E"
"~E,~E,~E,~E,E" - -> [1] "~E,E,~E,~E,E"
"~E,E,~E,~E,E" - -> [1] "~E,E,~E,~E,~E"
"~E,~E,E,~E,~E" - -> [1] "E,~E,E,~E,~E"
"E,~E,E,~E,~E" - -> [1] "E,~E,~E,~E,~E"
"E,~E,~E,E,~E" - -> [1] "~E,~E,~E,E,~E"
"~E,~E,~E,E,~E" - -> [1] "~E,~E,~E,E,E"
"~E,~E,~E,~E,E" - -> [1] "E,~E,~E,~E,E"
"~E,~E,E,~E,~E" - -> [1] "~E,~E,E,E,~E"
"~E,~E,E,E,~E" - -> [1] "~E,~E,~E,E,~E"
"~E,E,~E,~E,~E" - -> [43] "~E,~E,~E,~E,~E" #red
@enduml

PlantUML version 1.2019.00(Sun Jan 13 10:46:42 EST 2019)
(EPL source distribution)
Java Runtime: Java(TM) SE Runtime Environment
JVM: Java HotSpot(TM) 64-Bit Server VM
Java Version: 1.8.0_201-b09
Operating System: Mac OS X
OS Version: 10.14.4
Default Encoding: UTF-8
Language: zh
Country: CN
--></g></svg>