<?xml version="1.0" encoding="UTF-8" standalone="no"?><svg xmlns="http://www.w3.org/2000/svg" xmlns:xlink="http://www.w3.org/1999/xlink" contentScriptType="application/ecmascript" contentStyleType="text/css" height="1447px" preserveAspectRatio="none" style="width:239px;height:1447px;" version="1.1" viewBox="0 0 239 1447" width="239px" zoomAndPan="magnify"><defs><filter height="300%" id="fa6u0de5zlb21" width="300%" x="-1" y="-1"><feGaussianBlur result="blurOut" stdDeviation="2.0"/><feColorMatrix in="blurOut" result="blurOut2" type="matrix" values="0 0 0 0 0 0 0 0 0 0 0 0 0 0 0 0 0 0 .4 0"/><feOffset dx="4.0" dy="4.0" in="blurOut2" result="blurOut3"/><feBlend in="SourceGraphic" in2="blurOut3" mode="normal"/></filter></defs><g><ellipse cx="183" cy="18" fill="#000000" filter="url(#fa6u0de5zlb21)" rx="10" ry="10" style="stroke: none; stroke-width: 1.0;"/><rect fill="#FEFECE" filter="url(#fa6u0de5zlb21)" height="34.1328" rx="12.5" ry="12.5" style="stroke: #A80036; stroke-width: 1.5;" width="88" x="139" y="82"/><text fill="#000000" font-family="sans-serif" font-size="12" lengthAdjust="spacingAndGlyphs" textLength="68" x="149" y="103.6016">null,null,null</text><rect fill="#FEFECE" filter="url(#fa6u0de5zlb21)" height="34.1328" rx="12.5" ry="12.5" style="stroke: #A80036; stroke-width: 1.5;" width="76" x="145" y="170"/><text fill="#000000" font-family="sans-serif" font-size="12" lengthAdjust="spacingAndGlyphs" textLength="56" x="155" y="191.6016">0,null,null</text><rect fill="#FEFECE" filter="url(#fa6u0de5zlb21)" height="34.1328" rx="12.5" ry="12.5" style="stroke: #A80036; stroke-width: 1.5;" width="64" x="151" y="258"/><text fill="#000000" font-family="sans-serif" font-size="12" lengthAdjust="spacingAndGlyphs" textLength="44" x="161" y="279.6016">0,0,null</text><rect fill="#FF0000" filter="url(#fa6u0de5zlb21)" height="34.1328" rx="12.5" ry="12.5" style="stroke: #A80036; stroke-width: 1.5;" width="52" x="157" y="346"/><text fill="#000000" font-family="sans-serif" font-size="12" lengthAdjust="spacingAndGlyphs" textLength="32" x="167" y="367.6016">0,0,0</text><rect fill="#FEFECE" filter="url(#fa6u0de5zlb21)" height="34.1328" rx="12.5" ry="12.5" style="stroke: #A80036; stroke-width: 1.5;" width="52" x="124" y="434"/><text fill="#000000" font-family="sans-serif" font-size="12" lengthAdjust="spacingAndGlyphs" textLength="32" x="134" y="455.6016">1,0,0</text><rect fill="#FEFECE" filter="url(#fa6u0de5zlb21)" height="34.1328" rx="12.5" ry="12.5" style="stroke: #A80036; stroke-width: 1.5;" width="52" x="108" y="522"/><text fill="#000000" font-family="sans-serif" font-size="12" lengthAdjust="spacingAndGlyphs" textLength="32" x="118" y="543.6016">2,0,0</text><rect fill="#FEFECE" filter="url(#fa6u0de5zlb21)" height="34.1328" rx="12.5" ry="12.5" style="stroke: #A80036; stroke-width: 1.5;" width="52" x="82" y="610"/><text fill="#000000" font-family="sans-serif" font-size="12" lengthAdjust="spacingAndGlyphs" textLength="32" x="92" y="631.6016">3,0,0</text><rect fill="#FEFECE" filter="url(#fa6u0de5zlb21)" height="34.1328" rx="12.5" ry="12.5" style="stroke: #A80036; stroke-width: 1.5;" width="52" x="44" y="698"/><text fill="#000000" font-family="sans-serif" font-size="12" lengthAdjust="spacingAndGlyphs" textLength="32" x="54" y="719.6016">3,0,5</text><rect fill="#FEFECE" filter="url(#fa6u0de5zlb21)" height="34.1328" rx="12.5" ry="12.5" style="stroke: #A80036; stroke-width: 1.5;" width="52" x="44" y="786"/><text fill="#000000" font-family="sans-serif" font-size="12" lengthAdjust="spacingAndGlyphs" textLength="32" x="54" y="807.6016">2,0,5</text><rect fill="#FEFECE" filter="url(#fa6u0de5zlb21)" height="34.1328" rx="12.5" ry="12.5" style="stroke: #A80036; stroke-width: 1.5;" width="52" x="44" y="874"/><text fill="#000000" font-family="sans-serif" font-size="12" lengthAdjust="spacingAndGlyphs" textLength="32" x="54" y="895.6016">1,0,5</text><rect fill="#FEFECE" filter="url(#fa6u0de5zlb21)" height="34.1328" rx="12.5" ry="12.5" style="stroke: #A80036; stroke-width: 1.5;" width="52" x="44" y="962"/><text fill="#000000" font-family="sans-serif" font-size="12" lengthAdjust="spacingAndGlyphs" textLength="32" x="54" y="983.6016">0,0,5</text><rect fill="#FEFECE" filter="url(#fa6u0de5zlb21)" height="34.1328" rx="12.5" ry="12.5" style="stroke: #A80036; stroke-width: 1.5;" width="52" x="10" y="1050"/><text fill="#000000" font-family="sans-serif" font-size="12" lengthAdjust="spacingAndGlyphs" textLength="32" x="20" y="1071.6016">0,1,5</text><rect fill="#FEFECE" filter="url(#fa6u0de5zlb21)" height="34.1328" rx="12.5" ry="12.5" style="stroke: #A80036; stroke-width: 1.5;" width="52" x="82" y="1050"/><text fill="#000000" font-family="sans-serif" font-size="12" lengthAdjust="spacingAndGlyphs" textLength="32" x="92" y="1071.6016">0,0,4</text><rect fill="#FEFECE" filter="url(#fa6u0de5zlb21)" height="34.1328" rx="12.5" ry="12.5" style="stroke: #A80036; stroke-width: 1.5;" width="52" x="6" y="1138"/><text fill="#000000" font-family="sans-serif" font-size="12" lengthAdjust="spacingAndGlyphs" textLength="32" x="16" y="1159.6016">0,1,4</text><rect fill="#FEFECE" filter="url(#fa6u0de5zlb21)" height="34.1328" rx="12.5" ry="12.5" style="stroke: #A80036; stroke-width: 1.5;" width="52" x="85" y="1138"/><text fill="#000000" font-family="sans-serif" font-size="12" lengthAdjust="spacingAndGlyphs" textLength="32" x="95" y="1159.6016">0,0,3</text><rect fill="#FEFECE" filter="url(#fa6u0de5zlb21)" height="34.1328" rx="12.5" ry="12.5" style="stroke: #A80036; stroke-width: 1.5;" width="52" x="51" y="1226"/><text fill="#000000" font-family="sans-serif" font-size="12" lengthAdjust="spacingAndGlyphs" textLength="32" x="61" y="1247.6016">0,1,3</text><rect fill="#FEFECE" filter="url(#fa6u0de5zlb21)" height="34.1328" rx="12.5" ry="12.5" style="stroke: #A80036; stroke-width: 1.5;" width="52" x="123" y="1226"/><text fill="#000000" font-family="sans-serif" font-size="12" lengthAdjust="spacingAndGlyphs" textLength="32" x="133" y="1247.6016">0,0,2</text><rect fill="#FEFECE" filter="url(#fa6u0de5zlb21)" height="34.1328" rx="12.5" ry="12.5" style="stroke: #A80036; stroke-width: 1.5;" width="52" x="99" y="1314"/><text fill="#000000" font-family="sans-serif" font-size="12" lengthAdjust="spacingAndGlyphs" textLength="32" x="109" y="1335.6016">0,1,2</text><rect fill="#FEFECE" filter="url(#fa6u0de5zlb21)" height="34.1328" rx="12.5" ry="12.5" style="stroke: #A80036; stroke-width: 1.5;" width="52" x="176" y="1314"/><text fill="#000000" font-family="sans-serif" font-size="12" lengthAdjust="spacingAndGlyphs" textLength="32" x="186" y="1335.6016">0,0,1</text><rect fill="#FEFECE" filter="url(#fa6u0de5zlb21)" height="34.1328" rx="12.5" ry="12.5" style="stroke: #A80036; stroke-width: 1.5;" width="52" x="176" y="1402"/><text fill="#000000" font-family="sans-serif" font-size="12" lengthAdjust="spacingAndGlyphs" textLength="32" x="186" y="1423.6016">0,1,1</text><rect fill="#FEFECE" filter="url(#fa6u0de5zlb21)" height="34.1328" rx="12.5" ry="12.5" style="stroke: #A80036; stroke-width: 1.5;" width="52" x="116" y="698"/><text fill="#000000" font-family="sans-serif" font-size="12" lengthAdjust="spacingAndGlyphs" textLength="32" x="126" y="719.6016">4,0,0</text><rect fill="#FEFECE" filter="url(#fa6u0de5zlb21)" height="34.1328" rx="12.5" ry="12.5" style="stroke: #A80036; stroke-width: 1.5;" width="52" x="122" y="786"/><text fill="#000000" font-family="sans-serif" font-size="12" lengthAdjust="spacingAndGlyphs" textLength="32" x="132" y="807.6016">5,0,0</text><!--link start to null,null,null--><path d="M183,28.2587 C183,40.3447 183,60.7784 183,76.586 " fill="none" id="start-null,null,null" style="stroke: #A80036; stroke-width: 1.0;"/><polygon fill="#A80036" points="183,81.7507,187,72.7507,183,76.7507,179,72.7507,183,81.7507" style="stroke: #A80036; stroke-width: 1.0;"/><text fill="#000000" font-family="sans-serif" font-size="11" lengthAdjust="spacingAndGlyphs" textLength="7" x="184" y="59.6348">1</text><!--link null,null,null to 0,null,null--><path d="M183,116.386 C183,130.2154 183,149.6635 183,164.6491 " fill="none" id="null,null,null-0,null,null" style="stroke: #A80036; stroke-width: 1.0;"/><polygon fill="#A80036" points="183,169.9496,187,160.9496,183,164.9496,179,160.9496,183,169.9496" style="stroke: #A80036; stroke-width: 1.0;"/><text fill="#000000" font-family="sans-serif" font-size="11" lengthAdjust="spacingAndGlyphs" textLength="7" x="184" y="147.6348">1</text><!--link 0,null,null to 0,0,null--><path d="M183,204.386 C183,218.2154 183,237.6635 183,252.6491 " fill="none" id="0,null,null-0,0,null" style="stroke: #A80036; stroke-width: 1.0;"/><polygon fill="#A80036" points="183,257.9496,187,248.9496,183,252.9496,179,248.9496,183,257.9496" style="stroke: #A80036; stroke-width: 1.0;"/><text fill="#000000" font-family="sans-serif" font-size="11" lengthAdjust="spacingAndGlyphs" textLength="7" x="184" y="235.6348">1</text><!--link 0,0,null to 0,0,0--><path d="M183,292.386 C183,306.2154 183,325.6635 183,340.6491 " fill="none" id="0,0,null-0,0,0" style="stroke: #A80036; stroke-width: 1.0;"/><polygon fill="#A80036" points="183,345.9496,187,336.9496,183,340.9496,179,336.9496,183,345.9496" style="stroke: #A80036; stroke-width: 1.0;"/><text fill="#000000" font-family="sans-serif" font-size="11" lengthAdjust="spacingAndGlyphs" textLength="7" x="184" y="323.6348">1</text><!--link 0,0,0 to 1,0,0--><path d="M162.8485,380.3654 C157.6568,386.0394 152.7591,392.7614 150,400 C146.573,408.991 146.0555,419.5389 146.5949,428.7016 " fill="none" id="0,0,0-1,0,0" style="stroke: #A80036; stroke-width: 1.0;"/><polygon fill="#A80036" points="147.0206,433.9142,150.2744,424.6184,146.6134,428.9308,142.301,425.2698,147.0206,433.9142" style="stroke: #A80036; stroke-width: 1.0;"/><text fill="#000000" font-family="sans-serif" font-size="11" lengthAdjust="spacingAndGlyphs" textLength="7" x="151" y="411.6348">6</text><!--link 1,0,0 to 0,0,0--><path d="M156.3939,433.9496 C161.5907,420.0915 168.9628,400.4325 174.6295,385.3213 " fill="none" id="1,0,0-0,0,0" style="stroke: #A80036; stroke-width: 1.0;"/><polygon fill="#A80036" points="176.4803,380.386,169.5748,387.4084,174.7246,385.0676,177.0654,390.2175,176.4803,380.386" style="stroke: #A80036; stroke-width: 1.0;"/><text fill="#000000" font-family="sans-serif" font-size="11" lengthAdjust="spacingAndGlyphs" textLength="7" x="170" y="411.6348">5</text><!--link 1,0,0 to 2,0,0--><path d="M132.5606,468.3602 C127.8845,474.1276 123.4501,480.9023 121,488 C117.78,497.3281 119.5906,507.8626 122.7603,516.9253 " fill="none" id="1,0,0-2,0,0" style="stroke: #A80036; stroke-width: 1.0;"/><polygon fill="#A80036" points="124.6378,521.7917,125.1302,511.9552,122.8381,517.1268,117.6664,514.8347,124.6378,521.7917" style="stroke: #A80036; stroke-width: 1.0;"/><text fill="#000000" font-family="sans-serif" font-size="11" lengthAdjust="spacingAndGlyphs" textLength="7" x="122" y="499.6348">6</text><!--link 2,0,0 to 1,0,0--><path d="M137.1001,521.9496 C139.6197,508.0915 143.1941,488.4325 145.9416,473.3213 " fill="none" id="2,0,0-1,0,0" style="stroke: #A80036; stroke-width: 1.0;"/><polygon fill="#A80036" points="146.8389,468.386,141.2932,476.5251,145.9443,473.3053,149.1642,477.9564,146.8389,468.386" style="stroke: #A80036; stroke-width: 1.0;"/><text fill="#000000" font-family="sans-serif" font-size="11" lengthAdjust="spacingAndGlyphs" textLength="7" x="144" y="499.6348">5</text><!--link 2,0,0 to 3,0,0--><path d="M114.7855,556.0841 C109.6268,561.8401 104.7271,568.678 102,576 C98.5869,585.1639 99.2001,595.8378 101.0159,605.0452 " fill="none" id="2,0,0-3,0,0" style="stroke: #A80036; stroke-width: 1.0;"/><polygon fill="#A80036" points="102.1305,609.9908,104.0536,600.3315,101.0311,605.1132,96.2494,602.0906,102.1305,609.9908" style="stroke: #A80036; stroke-width: 1.0;"/><text fill="#000000" font-family="sans-serif" font-size="11" lengthAdjust="spacingAndGlyphs" textLength="7" x="103" y="587.6348">5</text><!--link 3,0,0 to 2,0,0--><path d="M113.0376,609.9496 C117.1321,596.0915 122.9404,576.4325 127.4051,561.3213 " fill="none" id="3,0,0-2,0,0" style="stroke: #A80036; stroke-width: 1.0;"/><polygon fill="#A80036" points="128.8632,556.386,122.477,563.8838,127.4465,561.1811,130.1491,566.1505,128.8632,556.386" style="stroke: #A80036; stroke-width: 1.0;"/><text fill="#000000" font-family="sans-serif" font-size="11" lengthAdjust="spacingAndGlyphs" textLength="7" x="124" y="587.6348">4</text><!--link 3,0,0 to 3,0,5--><path d="M100.5082,644.3161 C97.8233,650.524 94.7749,657.5751 92,664 C87.8707,673.5607 83.31,684.1314 79.4168,693.1584 " fill="none" id="3,0,0-3,0,5" style="stroke: #A80036; stroke-width: 1.0;"/><polygon fill="#A80036" points="77.3295,697.9984,84.5665,691.3181,79.3095,693.4071,77.2205,688.1501,77.3295,697.9984" style="stroke: #A80036; stroke-width: 1.0;"/><text fill="#000000" font-family="sans-serif" font-size="11" lengthAdjust="spacingAndGlyphs" textLength="7" x="93" y="675.6348">1</text><!--link 3,0,5 to 2,0,5--><path d="M70,732.386 C70,746.2154 70,765.6635 70,780.6491 " fill="none" id="3,0,5-2,0,5" style="stroke: #A80036; stroke-width: 1.0;"/><polygon fill="#A80036" points="70,785.9496,74,776.9496,70,780.9496,66,776.9496,70,785.9496" style="stroke: #A80036; stroke-width: 1.0;"/><text fill="#000000" font-family="sans-serif" font-size="11" lengthAdjust="spacingAndGlyphs" textLength="7" x="71" y="763.6348">1</text><!--link 2,0,5 to 1,0,5--><path d="M70,820.386 C70,834.2154 70,853.6635 70,868.6491 " fill="none" id="2,0,5-1,0,5" style="stroke: #A80036; stroke-width: 1.0;"/><polygon fill="#A80036" points="70,873.9496,74,864.9496,70,868.9496,66,864.9496,70,873.9496" style="stroke: #A80036; stroke-width: 1.0;"/><text fill="#000000" font-family="sans-serif" font-size="11" lengthAdjust="spacingAndGlyphs" textLength="7" x="71" y="851.6348">1</text><!--link 1,0,5 to 0,0,5--><path d="M70,908.386 C70,922.2154 70,941.6635 70,956.6491 " fill="none" id="1,0,5-0,0,5" style="stroke: #A80036; stroke-width: 1.0;"/><polygon fill="#A80036" points="70,961.9496,74,952.9496,70,956.9496,66,952.9496,70,961.9496" style="stroke: #A80036; stroke-width: 1.0;"/><text fill="#000000" font-family="sans-serif" font-size="11" lengthAdjust="spacingAndGlyphs" textLength="7" x="71" y="939.6348">1</text><!--link 0,0,5 to 0,1,5--><path d="M50.2842,996.0231 C44.9683,1001.7768 39.8928,1008.6285 37,1016 C33.4844,1024.9587 32.7733,1035.5017 33.1192,1044.6695 " fill="none" id="0,0,5-0,1,5" style="stroke: #A80036; stroke-width: 1.0;"/><polygon fill="#A80036" points="33.4319,1049.8861,36.886,1040.6628,33.1326,1044.8951,28.9004,1041.1417,33.4319,1049.8861" style="stroke: #A80036; stroke-width: 1.0;"/><text fill="#000000" font-family="sans-serif" font-size="11" lengthAdjust="spacingAndGlyphs" textLength="7" x="38" y="1027.6348">1</text><!--link 0,1,5 to 0,0,5--><path d="M42.5877,1049.9496 C47.9419,1036.0915 55.5374,1016.4325 61.3758,1001.3213 " fill="none" id="0,1,5-0,0,5" style="stroke: #A80036; stroke-width: 1.0;"/><polygon fill="#A80036" points="63.2827,996.386,56.3077,1003.3394,61.4806,1001.0499,63.77,1006.2228,63.2827,996.386" style="stroke: #A80036; stroke-width: 1.0;"/><text fill="#000000" font-family="sans-serif" font-size="11" lengthAdjust="spacingAndGlyphs" textLength="7" x="57" y="1027.6348">1</text><!--link 0,0,5 to 0,0,4--><path d="M77.5076,996.386 C83.5318,1010.3367 92.0249,1030.0051 98.5183,1045.0424 " fill="none" id="0,0,5-0,0,4" style="stroke: #A80036; stroke-width: 1.0;"/><polygon fill="#A80036" points="100.6373,1049.9496,100.7417,1040.1013,98.6551,1045.3593,93.3972,1043.2727,100.6373,1049.9496" style="stroke: #A80036; stroke-width: 1.0;"/><text fill="#000000" font-family="sans-serif" font-size="11" lengthAdjust="spacingAndGlyphs" textLength="7" x="93" y="1027.6348">1</text><!--link 0,0,4 to 0,1,4--><path d="M81.6865,1079.5111 C78.4295,1081.0344 75.1417,1082.5603 72,1084 C52.1033,1093.1178 38.9262,1085.6485 27,1104 C21.6007,1112.3083 21.8458,1123.0405 23.8459,1132.5149 " fill="none" id="0,0,4-0,1,4" style="stroke: #A80036; stroke-width: 1.0;"/><polygon fill="#A80036" points="25.113,1137.6257,26.8295,1127.9276,23.9097,1132.7727,19.0646,1129.8529,25.113,1137.6257" style="stroke: #A80036; stroke-width: 1.0;"/><text fill="#000000" font-family="sans-serif" font-size="11" lengthAdjust="spacingAndGlyphs" textLength="14" x="28" y="1115.6348">17</text><!--link 0,1,4 to 0,0,4--><path d="M46.7254,1137.9496 C58.9019,1123.8505 76.264,1103.747 89.3998,1088.5371 " fill="none" id="0,1,4-0,0,4" style="stroke: #A80036; stroke-width: 1.0;"/><polygon fill="#A80036" points="92.9848,1084.386,84.0749,1088.5829,89.7167,1088.1701,90.1295,1093.8119,92.9848,1084.386" style="stroke: #A80036; stroke-width: 1.0;"/><text fill="#000000" font-family="sans-serif" font-size="11" lengthAdjust="spacingAndGlyphs" textLength="14" x="76" y="1115.6348">17</text><!--link 0,0,4 to 0,0,3--><path d="M108.5927,1084.386 C109.0642,1098.2154 109.7272,1117.6635 110.238,1132.6491 " fill="none" id="0,0,4-0,0,3" style="stroke: #A80036; stroke-width: 1.0;"/><polygon fill="#A80036" points="110.4187,1137.9496,114.1096,1128.8185,110.2483,1132.9525,106.1143,1129.0912,110.4187,1137.9496" style="stroke: #A80036; stroke-width: 1.0;"/><text fill="#000000" font-family="sans-serif" font-size="11" lengthAdjust="spacingAndGlyphs" textLength="7" x="111" y="1115.6348">2</text><!--link 0,0,3 to 0,0,4--><path d="M116.3516,1137.5476 C118.7134,1127.7043 120.626,1115.175 119,1104 C118.2914,1099.1299 117.0841,1094.0091 115.7226,1089.1823 " fill="none" id="0,0,3-0,0,4" style="stroke: #A80036; stroke-width: 1.0;"/><polygon fill="#A80036" points="114.201,1084.0857,112.943,1093.8539,115.6314,1088.8767,120.6086,1091.5652,114.201,1084.0857" style="stroke: #A80036; stroke-width: 1.0;"/><text fill="#000000" font-family="sans-serif" font-size="11" lengthAdjust="spacingAndGlyphs" textLength="7" x="121" y="1115.6348">1</text><!--link 0,0,3 to 0,1,3--><path d="M91.2842,1172.0231 C85.9683,1177.7768 80.8928,1184.6285 78,1192 C74.4844,1200.9587 73.7733,1211.5017 74.1192,1220.6695 " fill="none" id="0,0,3-0,1,3" style="stroke: #A80036; stroke-width: 1.0;"/><polygon fill="#A80036" points="74.4319,1225.8861,77.886,1216.6628,74.1326,1220.8951,69.9004,1217.1417,74.4319,1225.8861" style="stroke: #A80036; stroke-width: 1.0;"/><text fill="#000000" font-family="sans-serif" font-size="11" lengthAdjust="spacingAndGlyphs" textLength="7" x="79" y="1203.6348">5</text><!--link 0,1,3 to 0,0,3--><path d="M83.5877,1225.9496 C88.9419,1212.0915 96.5374,1192.4325 102.3758,1177.3213 " fill="none" id="0,1,3-0,0,3" style="stroke: #A80036; stroke-width: 1.0;"/><polygon fill="#A80036" points="104.2827,1172.386,97.3077,1179.3394,102.4806,1177.0499,104.77,1182.2228,104.2827,1172.386" style="stroke: #A80036; stroke-width: 1.0;"/><text fill="#000000" font-family="sans-serif" font-size="11" lengthAdjust="spacingAndGlyphs" textLength="7" x="98" y="1203.6348">5</text><!--link 0,0,3 to 0,0,2--><path d="M118.5076,1172.386 C124.5318,1186.3367 133.0249,1206.0051 139.5183,1221.0424 " fill="none" id="0,0,3-0,0,2" style="stroke: #A80036; stroke-width: 1.0;"/><polygon fill="#A80036" points="141.6373,1225.9496,141.7417,1216.1013,139.6551,1221.3593,134.3972,1219.2727,141.6373,1225.9496" style="stroke: #A80036; stroke-width: 1.0;"/><text fill="#000000" font-family="sans-serif" font-size="11" lengthAdjust="spacingAndGlyphs" textLength="7" x="134" y="1203.6348">1</text><!--link 0,0,2 to 0,1,2--><path d="M128.8485,1260.3654 C123.6568,1266.0394 118.7591,1272.7614 116,1280 C112.5416,1289.0735 113.603,1299.5681 115.9862,1308.6699 " fill="none" id="0,0,2-0,1,2" style="stroke: #A80036; stroke-width: 1.0;"/><polygon fill="#A80036" points="117.4258,1313.5653,118.724,1303.8024,116.0151,1308.7684,111.049,1306.0595,117.4258,1313.5653" style="stroke: #A80036; stroke-width: 1.0;"/><text fill="#000000" font-family="sans-serif" font-size="11" lengthAdjust="spacingAndGlyphs" textLength="7" x="117" y="1291.6348">1</text><!--link 0,1,2 to 0,0,2--><path d="M129.6501,1313.9496 C133.4296,1300.0915 138.7911,1280.4325 142.9124,1265.3213 " fill="none" id="0,1,2-0,0,2" style="stroke: #A80036; stroke-width: 1.0;"/><polygon fill="#A80036" points="144.2584,1260.386,138.0311,1268.0163,142.9427,1265.2098,145.7492,1270.1214,144.2584,1260.386" style="stroke: #A80036; stroke-width: 1.0;"/><text fill="#000000" font-family="sans-serif" font-size="11" lengthAdjust="spacingAndGlyphs" textLength="7" x="140" y="1291.6348">1</text><!--link 0,0,2 to 0,0,1--><path d="M159.4711,1260.386 C167.9463,1274.458 179.9253,1294.3476 189.0112,1309.4337 " fill="none" id="0,0,2-0,0,1" style="stroke: #A80036; stroke-width: 1.0;"/><polygon fill="#A80036" points="191.731,1313.9496,190.514,1304.1762,189.1513,1309.6665,183.661,1308.3037,191.731,1313.9496" style="stroke: #A80036; stroke-width: 1.0;"/><text fill="#000000" font-family="sans-serif" font-size="11" lengthAdjust="spacingAndGlyphs" textLength="7" x="180" y="1291.6348">1</text><!--link 0,0,1 to 0,1,1--><path d="M191.9794,1348.2398 C187.4694,1358.0167 183.6304,1370.5502 186,1382 C187.0425,1387.0371 188.8052,1392.2318 190.7888,1397.0784 " fill="none" id="0,0,1-0,1,1" style="stroke: #A80036; stroke-width: 1.0;"/><polygon fill="#A80036" points="192.8274,1401.7902,192.9247,1391.9418,190.842,1397.2013,185.5825,1395.1185,192.8274,1401.7902" style="stroke: #A80036; stroke-width: 1.0;"/><text fill="#000000" font-family="sans-serif" font-size="11" lengthAdjust="spacingAndGlyphs" textLength="7" x="187" y="1379.6348">1</text><!--link 0,1,1 to 0,0,1--><path d="M202,1401.9496 C202,1388.212 202,1368.774 202,1353.7166 " fill="none" id="0,1,1-0,0,1" style="stroke: #A80036; stroke-width: 1.0;"/><polygon fill="#A80036" points="202,1348.386,198,1357.386,202,1353.386,206,1357.386,202,1348.386" style="stroke: #A80036; stroke-width: 1.0;"/><text fill="#000000" font-family="sans-serif" font-size="11" lengthAdjust="spacingAndGlyphs" textLength="7" x="203" y="1379.6348">1</text><!--link 0,0,1 to 0,0,0--><path d="M203.8655,1313.8241 C205.6269,1296.1042 208,1267.6543 208,1243 C208,451 208,451 208,451 C208,427.7721 199.8407,402.3632 192.8448,384.8462 " fill="none" id="0,0,1-0,0,0" style="stroke: #A80036; stroke-width: 1.0;"/><polygon fill="#A80036" points="190.9102,380.1232,190.6201,389.9678,192.8054,384.7501,198.0231,386.9354,190.9102,380.1232" style="stroke: #A80036; stroke-width: 1.0;"/><text fill="#000000" font-family="sans-serif" font-size="11" lengthAdjust="spacingAndGlyphs" textLength="7" x="209" y="851.6348">1</text><!--link 3,0,0 to 4,0,0--><path d="M105.4319,644.1139 C104.6022,654.2989 104.7944,667.283 109,678 C111.26,683.759 114.8522,689.2007 118.8505,694.0495 " fill="none" id="3,0,0-4,0,0" style="stroke: #A80036; stroke-width: 1.0;"/><polygon fill="#A80036" points="122.2842,697.9769,119.3719,688.5685,118.9932,694.2127,113.3491,693.834,122.2842,697.9769" style="stroke: #A80036; stroke-width: 1.0;"/><text fill="#000000" font-family="sans-serif" font-size="11" lengthAdjust="spacingAndGlyphs" textLength="7" x="110" y="675.6348">4</text><!--link 4,0,0 to 3,0,0--><path d="M135.4123,697.9496 C130.0581,684.0915 122.4626,664.4325 116.6242,649.3213 " fill="none" id="4,0,0-3,0,0" style="stroke: #A80036; stroke-width: 1.0;"/><polygon fill="#A80036" points="114.7173,644.386,114.23,654.2228,116.5194,649.0499,121.6923,651.3394,114.7173,644.386" style="stroke: #A80036; stroke-width: 1.0;"/><text fill="#000000" font-family="sans-serif" font-size="11" lengthAdjust="spacingAndGlyphs" textLength="7" x="129" y="675.6348">4</text><!--link 4,0,0 to 5,0,0--><path d="M133.2548,732.4403 C129.4016,742.2799 126.2947,754.8094 129,766 C130.2472,771.1589 132.3444,776.4054 134.7007,781.264 " fill="none" id="4,0,0-5,0,0" style="stroke: #A80036; stroke-width: 1.0;"/><polygon fill="#A80036" points="137.1216,785.9756,136.5663,776.1424,134.8365,781.5283,129.4506,779.7985,137.1216,785.9756" style="stroke: #A80036; stroke-width: 1.0;"/><text fill="#000000" font-family="sans-serif" font-size="11" lengthAdjust="spacingAndGlyphs" textLength="7" x="130" y="763.6348">4</text><!--link 5,0,0 to 4,0,0--><path d="M146.8375,785.9496 C145.9008,772.212 144.5755,752.774 143.5489,737.7166 " fill="none" id="5,0,0-4,0,0" style="stroke: #A80036; stroke-width: 1.0;"/><polygon fill="#A80036" points="143.1854,732.386,139.8072,741.6374,143.5257,737.3744,147.7886,741.0929,143.1854,732.386" style="stroke: #A80036; stroke-width: 1.0;"/><text fill="#000000" font-family="sans-serif" font-size="11" lengthAdjust="spacingAndGlyphs" textLength="7" x="147" y="763.6348">4</text><!--
@startuml
(*) - -> [1] "null,null,null"
"null,null,null" - -> [1] "0,null,null"
"0,null,null" - -> [1] "0,0,null"
"0,0,null" - -> [1] "0,0,0"
"0,0,0" - -> [6] "1,0,0"
"1,0,0" - -> [6] "2,0,0"
"2,0,0" - -> [5] "3,0,0"
"3,0,0" - -> [1] "3,0,5"
"3,0,5" - -> [1] "2,0,5"
"2,0,5" - -> [1] "1,0,5"
"1,0,5" - -> [1] "0,0,5"
"0,0,5" - -> [1] "0,1,5"
"0,1,5" - -> [1] "0,0,5"
"0,0,5" - -> [1] "0,0,4"
"0,0,4" - -> [17] "0,1,4"
"0,1,4" - -> [17] "0,0,4"
"0,0,4" - -> [2] "0,0,3"
"0,0,3" - -> [5] "0,1,3"
"0,1,3" - -> [5] "0,0,3"
"0,0,3" - -> [1] "0,0,4"
"0,0,3" - -> [1] "0,0,2"
"0,0,2" - -> [1] "0,1,2"
"0,1,2" - -> [1] "0,0,2"
"0,0,2" - -> [1] "0,0,1"
"0,0,1" - -> [1] "0,1,1"
"0,1,1" - -> [1] "0,0,1"
"0,0,1" - -> [1] "0,0,0"
"3,0,0" - -> [4] "4,0,0"
"4,0,0" - -> [4] "5,0,0"
"5,0,0" - -> [4] "4,0,0"
"4,0,0" - -> [4] "3,0,0"
"3,0,0" - -> [4] "2,0,0"
"2,0,0" - -> [5] "1,0,0"
"1,0,0" - -> [5] "0,0,0" #red
@enduml

PlantUML version 1.2019.00(Sun Jan 13 10:46:42 EST 2019)
(EPL source distribution)
Java Runtime: Java(TM) SE Runtime Environment
JVM: Java HotSpot(TM) 64-Bit Server VM
Java Version: 1.8.0_201-b09
Operating System: Mac OS X
OS Version: 10.14.4
Default Encoding: UTF-8
Language: zh
Country: CN
--></g></svg>