<?xml version="1.0" encoding="UTF-8" standalone="no"?><svg xmlns="http://www.w3.org/2000/svg" xmlns:xlink="http://www.w3.org/1999/xlink" contentScriptType="application/ecmascript" contentStyleType="text/css" height="743px" preserveAspectRatio="none" style="width:141px;height:743px;" version="1.1" viewBox="0 0 141 743" width="141px" zoomAndPan="magnify"><defs><filter height="300%" id="f1h76iz306rm2z" width="300%" x="-1" y="-1"><feGaussianBlur result="blurOut" stdDeviation="2.0"/><feColorMatrix in="blurOut" result="blurOut2" type="matrix" values="0 0 0 0 0 0 0 0 0 0 0 0 0 0 0 0 0 0 .4 0"/><feOffset dx="4.0" dy="4.0" in="blurOut2" result="blurOut3"/><feBlend in="SourceGraphic" in2="blurOut3" mode="normal"/></filter></defs><g><ellipse cx="73" cy="18" fill="#000000" filter="url(#f1h76iz306rm2z)" rx="10" ry="10" style="stroke: none; stroke-width: 1.0;"/><rect fill="#FEFECE" filter="url(#f1h76iz306rm2z)" height="34.1328" rx="12.5" ry="12.5" style="stroke: #A80036; stroke-width: 1.5;" width="64" x="41" y="82"/><text fill="#000000" font-family="sans-serif" font-size="12" lengthAdjust="spacingAndGlyphs" textLength="44" x="51" y="103.6016">null,null</text><rect fill="#FEFECE" filter="url(#f1h76iz306rm2z)" height="34.1328" rx="12.5" ry="12.5" style="stroke: #A80036; stroke-width: 1.5;" width="52" x="47" y="170"/><text fill="#000000" font-family="sans-serif" font-size="12" lengthAdjust="spacingAndGlyphs" textLength="32" x="57" y="191.6016">0,null</text><rect fill="#FF0000" filter="url(#f1h76iz306rm2z)" height="34.1328" rx="12.5" ry="12.5" style="stroke: #A80036; stroke-width: 1.5;" width="40" x="53" y="258"/><text fill="#000000" font-family="sans-serif" font-size="12" lengthAdjust="spacingAndGlyphs" textLength="20" x="63" y="279.6016">0,0</text><rect fill="#FEFECE" filter="url(#f1h76iz306rm2z)" height="34.1328" rx="12.5" ry="12.5" style="stroke: #A80036; stroke-width: 1.5;" width="40" x="6" y="346"/><text fill="#000000" font-family="sans-serif" font-size="12" lengthAdjust="spacingAndGlyphs" textLength="20" x="16" y="367.6016">1,0</text><rect fill="#FEFECE" filter="url(#f1h76iz306rm2z)" height="34.1328" rx="12.5" ry="12.5" style="stroke: #A80036; stroke-width: 1.5;" width="40" x="6" y="434"/><text fill="#000000" font-family="sans-serif" font-size="12" lengthAdjust="spacingAndGlyphs" textLength="20" x="16" y="455.6016">2,0</text><rect fill="#FEFECE" filter="url(#f1h76iz306rm2z)" height="34.1328" rx="12.5" ry="12.5" style="stroke: #A80036; stroke-width: 1.5;" width="40" x="6" y="522"/><text fill="#000000" font-family="sans-serif" font-size="12" lengthAdjust="spacingAndGlyphs" textLength="20" x="16" y="543.6016">3,0</text><rect fill="#FEFECE" filter="url(#f1h76iz306rm2z)" height="34.1328" rx="12.5" ry="12.5" style="stroke: #A80036; stroke-width: 1.5;" width="40" x="90" y="346"/><text fill="#000000" font-family="sans-serif" font-size="12" lengthAdjust="spacingAndGlyphs" textLength="20" x="100" y="367.6016">0,1</text><rect fill="#FEFECE" filter="url(#f1h76iz306rm2z)" height="34.1328" rx="12.5" ry="12.5" style="stroke: #A80036; stroke-width: 1.5;" width="40" x="6" y="610"/><text fill="#000000" font-family="sans-serif" font-size="12" lengthAdjust="spacingAndGlyphs" textLength="20" x="16" y="631.6016">4,0</text><rect fill="#FEFECE" filter="url(#f1h76iz306rm2z)" height="34.1328" rx="12.5" ry="12.5" style="stroke: #A80036; stroke-width: 1.5;" width="40" x="6" y="698"/><text fill="#000000" font-family="sans-serif" font-size="12" lengthAdjust="spacingAndGlyphs" textLength="20" x="16" y="719.6016">5,0</text><!--link start to null,null--><path d="M73,28.2587 C73,40.3447 73,60.7784 73,76.586 " fill="none" id="start-null,null" style="stroke: #A80036; stroke-width: 1.0;"/><polygon fill="#A80036" points="73,81.7507,77,72.7507,73,76.7507,69,72.7507,73,81.7507" style="stroke: #A80036; stroke-width: 1.0;"/><text fill="#000000" font-family="sans-serif" font-size="11" lengthAdjust="spacingAndGlyphs" textLength="7" x="74" y="59.6348">1</text><!--link null,null to 0,null--><path d="M73,116.386 C73,130.2154 73,149.6635 73,164.6491 " fill="none" id="null,null-0,null" style="stroke: #A80036; stroke-width: 1.0;"/><polygon fill="#A80036" points="73,169.9496,77,160.9496,73,164.9496,69,160.9496,73,169.9496" style="stroke: #A80036; stroke-width: 1.0;"/><text fill="#000000" font-family="sans-serif" font-size="11" lengthAdjust="spacingAndGlyphs" textLength="7" x="74" y="147.6348">1</text><!--link 0,null to 0,0--><path d="M73,204.386 C73,218.2154 73,237.6635 73,252.6491 " fill="none" id="0,null-0,0" style="stroke: #A80036; stroke-width: 1.0;"/><polygon fill="#A80036" points="73,257.9496,77,248.9496,73,252.9496,69,248.9496,73,257.9496" style="stroke: #A80036; stroke-width: 1.0;"/><text fill="#000000" font-family="sans-serif" font-size="11" lengthAdjust="spacingAndGlyphs" textLength="7" x="74" y="235.6348">1</text><!--link 0,0 to 1,0--><path d="M52.9222,284.0986 C41.917,290.2624 29.2699,299.5603 23,312 C18.6212,320.6876 18.5455,331.2933 19.8893,340.5784 " fill="none" id="0,0-1,0" style="stroke: #A80036; stroke-width: 1.0;"/><polygon fill="#A80036" points="20.7636,345.5805,23.154,336.0261,19.9026,340.6552,15.2735,337.4037,20.7636,345.5805" style="stroke: #A80036; stroke-width: 1.0;"/><text fill="#000000" font-family="sans-serif" font-size="11" lengthAdjust="spacingAndGlyphs" textLength="7" x="24" y="323.6348">6</text><!--link 1,0 to 0,0--><path d="M35.1065,345.9496 C42.5723,331.971 53.1905,312.0902 61.2884,296.9282 " fill="none" id="1,0-0,0" style="stroke: #A80036; stroke-width: 1.0;"/><polygon fill="#A80036" points="63.7143,292.386,55.946,298.4402,61.3588,296.7964,63.0026,302.2091,63.7143,292.386" style="stroke: #A80036; stroke-width: 1.0;"/><text fill="#000000" font-family="sans-serif" font-size="11" lengthAdjust="spacingAndGlyphs" textLength="7" x="53" y="323.6348">6</text><!--link 1,0 to 2,0--><path d="M16.8274,380.2098 C14.0605,386.2875 11.39,393.2838 10,400 C8.0007,409.6607 10.4213,420.0931 13.9356,428.99 " fill="none" id="1,0-2,0" style="stroke: #A80036; stroke-width: 1.0;"/><polygon fill="#A80036" points="15.9794,433.7602,16.1114,423.9122,14.0101,429.1643,8.758,427.0631,15.9794,433.7602" style="stroke: #A80036; stroke-width: 1.0;"/><text fill="#000000" font-family="sans-serif" font-size="11" lengthAdjust="spacingAndGlyphs" textLength="7" x="11" y="411.6348">6</text><!--link 2,0 to 1,0--><path d="M26,433.9496 C26,420.212 26,400.774 26,385.7166 " fill="none" id="2,0-1,0" style="stroke: #A80036; stroke-width: 1.0;"/><polygon fill="#A80036" points="26,380.386,22,389.386,26,385.386,30,389.386,26,380.386" style="stroke: #A80036; stroke-width: 1.0;"/><text fill="#000000" font-family="sans-serif" font-size="11" lengthAdjust="spacingAndGlyphs" textLength="7" x="27" y="411.6348">6</text><!--link 2,0 to 3,0--><path d="M15.9794,468.2398 C11.4694,478.0167 7.6304,490.5502 10,502 C11.0425,507.0371 12.8052,512.2318 14.7888,517.0784 " fill="none" id="2,0-3,0" style="stroke: #A80036; stroke-width: 1.0;"/><polygon fill="#A80036" points="16.8274,521.7902,16.9247,511.9418,14.842,517.2013,9.5825,515.1185,16.8274,521.7902" style="stroke: #A80036; stroke-width: 1.0;"/><text fill="#000000" font-family="sans-serif" font-size="11" lengthAdjust="spacingAndGlyphs" textLength="7" x="11" y="499.6348">5</text><!--link 3,0 to 2,0--><path d="M26,521.9496 C26,508.212 26,488.774 26,473.7166 " fill="none" id="3,0-2,0" style="stroke: #A80036; stroke-width: 1.0;"/><polygon fill="#A80036" points="26,468.386,22,477.386,26,473.386,30,477.386,26,468.386" style="stroke: #A80036; stroke-width: 1.0;"/><text fill="#000000" font-family="sans-serif" font-size="11" lengthAdjust="spacingAndGlyphs" textLength="7" x="27" y="499.6348">5</text><!--link 0,0 to 0,1--><path d="M77.9396,292.278 C81.0028,302.2873 85.2528,315.0373 90,326 C92.2215,331.1302 94.9032,336.5013 97.571,341.5103 " fill="none" id="0,0-0,1" style="stroke: #A80036; stroke-width: 1.0;"/><polygon fill="#A80036" points="100.0035,345.9912,99.2249,336.1732,97.618,341.597,92.1942,339.99,100.0035,345.9912" style="stroke: #A80036; stroke-width: 1.0;"/><text fill="#000000" font-family="sans-serif" font-size="11" lengthAdjust="spacingAndGlyphs" textLength="14" x="91" y="323.6348">25</text><!--link 0,1 to 0,0--><path d="M111.8058,345.8126 C112.2036,335.6015 111.5003,322.6158 107,312 C104.5527,306.2271 100.7995,300.7791 96.6666,295.9288 " fill="none" id="0,1-0,0" style="stroke: #A80036; stroke-width: 1.0;"/><polygon fill="#A80036" points="93.126,292.0011,96.181,301.3642,96.4738,295.7149,102.1231,296.0077,93.126,292.0011" style="stroke: #A80036; stroke-width: 1.0;"/><text fill="#000000" font-family="sans-serif" font-size="11" lengthAdjust="spacingAndGlyphs" textLength="14" x="111" y="323.6348">25</text><!--link 3,0 to 4,0--><path d="M16.8274,556.2098 C14.0605,562.2875 11.39,569.2838 10,576 C8.0007,585.6607 10.4213,596.0931 13.9356,604.99 " fill="none" id="3,0-4,0" style="stroke: #A80036; stroke-width: 1.0;"/><polygon fill="#A80036" points="15.9794,609.7602,16.1114,599.9122,14.0101,605.1643,8.758,603.0631,15.9794,609.7602" style="stroke: #A80036; stroke-width: 1.0;"/><text fill="#000000" font-family="sans-serif" font-size="11" lengthAdjust="spacingAndGlyphs" textLength="7" x="11" y="587.6348">4</text><!--link 4,0 to 3,0--><path d="M26,609.9496 C26,596.212 26,576.774 26,561.7166 " fill="none" id="4,0-3,0" style="stroke: #A80036; stroke-width: 1.0;"/><polygon fill="#A80036" points="26,556.386,22,565.386,26,561.386,30,565.386,26,556.386" style="stroke: #A80036; stroke-width: 1.0;"/><text fill="#000000" font-family="sans-serif" font-size="11" lengthAdjust="spacingAndGlyphs" textLength="7" x="27" y="587.6348">4</text><!--link 4,0 to 5,0--><path d="M15.9794,644.2398 C11.4694,654.0167 7.6304,666.5502 10,678 C11.0425,683.0371 12.8052,688.2318 14.7888,693.0784 " fill="none" id="4,0-5,0" style="stroke: #A80036; stroke-width: 1.0;"/><polygon fill="#A80036" points="16.8274,697.7902,16.9247,687.9418,14.842,693.2013,9.5825,691.1185,16.8274,697.7902" style="stroke: #A80036; stroke-width: 1.0;"/><text fill="#000000" font-family="sans-serif" font-size="11" lengthAdjust="spacingAndGlyphs" textLength="7" x="11" y="675.6348">4</text><!--link 5,0 to 4,0--><path d="M26,697.9496 C26,684.212 26,664.774 26,649.7166 " fill="none" id="5,0-4,0" style="stroke: #A80036; stroke-width: 1.0;"/><polygon fill="#A80036" points="26,644.386,22,653.386,26,649.386,30,653.386,26,644.386" style="stroke: #A80036; stroke-width: 1.0;"/><text fill="#000000" font-family="sans-serif" font-size="11" lengthAdjust="spacingAndGlyphs" textLength="7" x="27" y="675.6348">4</text><!--
@startuml
(*) - -> [1] "null,null"
"null,null" - -> [1] "0,null"
"0,null" - -> [1] "0,0"
"0,0" - -> [6] "1,0"
"1,0" - -> [6] "2,0"
"2,0" - -> [5] "3,0"
"3,0" - -> [5] "2,0"
"2,0" - -> [6] "1,0"
"0,0" - -> [25] "0,1"
"0,1" - -> [25] "0,0"
"3,0" - -> [4] "4,0"
"4,0" - -> [4] "5,0"
"5,0" - -> [4] "4,0"
"4,0" - -> [4] "3,0"
"1,0" - -> [6] "0,0" #red
@enduml

PlantUML version 1.2019.00(Sun Jan 13 10:46:42 EST 2019)
(EPL source distribution)
Java Runtime: Java(TM) SE Runtime Environment
JVM: Java HotSpot(TM) 64-Bit Server VM
Java Version: 1.8.0_201-b09
Operating System: Mac OS X
OS Version: 10.14.4
Default Encoding: UTF-8
Language: zh
Country: CN
--></g></svg>